<svg xmlns="http://www.w3.org/2000/svg" width="16.843" height="19.25" viewBox="0 0 16.843 19.25">
  <path id="Icon_metro-attachment" data-name="Icon metro-attachment" d="M15.45,8.076l-1.221-1.22-6.106,6.1a2.59,2.59,0,1,0,3.663,3.663L19.113,9.3a4.317,4.317,0,1,0-6.105-6.1L5.315,10.885,5.3,10.9a6.021,6.021,0,0,0,8.515,8.514l.015-.016h0l5.251-5.25-1.222-1.22-5.251,5.25-.016.016a4.294,4.294,0,0,1-6.073-6.071l.017-.016h0l7.694-7.692a2.59,2.59,0,0,1,3.664,3.663L10.565,15.4a.863.863,0,0,1-1.221-1.22L15.45,8.076Z" transform="translate(-3.535 -1.928)" fill="#bfc4d3"/>
</svg>
