<svg xmlns="http://www.w3.org/2000/svg" width="39.238" height="39.24" viewBox="0 0 39.238 39.24">
  <g id="Beauty_Curl_Hair" data-name="Beauty Curl Hair" transform="translate(0)">
    <g id="Outline" transform="translate(0 0)">
      <path id="Path_13" data-name="Path 13" d="M130.019,307.5a.613.613,0,0,0,.867,0l1.131-1.131a4.782,4.782,0,0,0,.888.085,3.256,3.256,0,0,0,2.273-.793l-.867-.867.007-.007a2.122,2.122,0,0,1-1.413.44,4.114,4.114,0,0,1-2.632-1.047.613.613,0,0,0-.867,0l-1.226,1.226a.613.613,0,0,0,.867.867l.834-.834a5.639,5.639,0,0,0,.834.5l-.7.7A.613.613,0,0,0,130.019,307.5Z" transform="translate(-118.19 -280.702)" fill="#06abc5"/>
      <path id="Path_14" data-name="Path 14" d="M211.679,400.333a1.315,1.315,0,0,0-.836-.333,6.361,6.361,0,0,0-2.6,1.351.613.613,0,0,0-.242.488c0,1.185,1,3.065,3.679,3.065s3.679-1.88,3.679-3.065a.613.613,0,0,0-.242-.488,6.362,6.362,0,0,0-2.6-1.351A1.315,1.315,0,0,0,211.679,400.333Zm2.409,1.784c-.124.514-.6,1.561-2.409,1.561s-2.285-1.047-2.409-1.561a6.215,6.215,0,0,1,1.557-.889,1.568,1.568,0,0,1,.374.381.613.613,0,0,0,.957,0,1.589,1.589,0,0,1,.372-.381A6.213,6.213,0,0,1,214.087,402.117Z" transform="translate(-192.059 -369.346)" fill="#06abc5"/>
      <path id="Path_15" data-name="Path 15" d="M128.886,257.774a5.222,5.222,0,0,1,2.287-.548,6.864,6.864,0,0,1,3.136,1.047.613.613,0,0,0,.867-.867c-1.04-1.04-3.607-1.368-3.9-1.4a.62.62,0,0,0-.071,0,6.453,6.453,0,0,0-2.871.678.613.613,0,1,0,.548,1.1Z" transform="translate(-118.189 -236.38)" fill="#06abc5"/>
      <path id="Path_16" data-name="Path 16" d="M296.474,306.285a.613.613,0,0,0,.867-.867l-1.226-1.226a.616.616,0,0,0-.865,0,4.115,4.115,0,0,1-2.634,1.048,2.122,2.122,0,0,1-1.413-.44l.007.007-.867.867a3.257,3.257,0,0,0,2.273.793,4.777,4.777,0,0,0,.888-.084l1.131,1.131a.613.613,0,0,0,.867-.867l-.7-.7a5.641,5.641,0,0,0,.834-.5Z" transform="translate(-268.092 -280.715)" fill="#06abc5"/>
      <path id="Path_17" data-name="Path 17" d="M295.018,256.678a6.454,6.454,0,0,0-2.871-.678.619.619,0,0,0-.071,0c-.289.034-2.856.361-3.9,1.4a.613.613,0,0,0,.867.867,6.886,6.886,0,0,1,3.136-1.047,5.222,5.222,0,0,1,2.287.548.613.613,0,1,0,.548-1.1Z" transform="translate(-265.928 -236.381)" fill="#06abc5"/>
      <path id="Path_18" data-name="Path 18" d="M32,257.839A1.839,1.839,0,1,0,33.839,256,1.839,1.839,0,0,0,32,257.839Zm2.452,0a.613.613,0,1,1-.613-.613A.613.613,0,0,1,34.452,257.839Z" transform="translate(-29.547 -236.381)" fill="#06abc5"/>
      <path id="Path_19" data-name="Path 19" d="M33.839,352a1.839,1.839,0,1,0,1.839,1.839A1.839,1.839,0,0,0,33.839,352Zm0,2.452a.613.613,0,1,1,.613-.613A.613.613,0,0,1,33.839,354.452Z" transform="translate(-29.547 -325.024)" fill="#06abc5"/>
      <path id="Path_20" data-name="Path 20" d="M433.839,259.678A1.839,1.839,0,1,0,432,257.839,1.839,1.839,0,0,0,433.839,259.678Zm0-2.452a.613.613,0,1,1-.613.613A.613.613,0,0,1,433.839,257.226Z" transform="translate(-398.893 -236.381)" fill="#06abc5"/>
      <path id="Path_21" data-name="Path 21" d="M37.149,25.137a4.29,4.29,0,0,0-1.595-7.926v-1.8L37.2,13.773a1.839,1.839,0,0,0,0-2.6l-.867-.867a.615.615,0,0,0-.151-.111,2.435,2.435,0,0,0-.716-1.623L33.728,6.836A2.435,2.435,0,0,0,32.1,6.121a.615.615,0,0,0-.111-.151L31.127,5.1a1.839,1.839,0,0,0-2.6,0l-.121.121a15.291,15.291,0,0,0-2.66-1.493V2.452A1.841,1.841,0,0,0,23.906.613H22.68a.611.611,0,0,0-.227.044A1.837,1.837,0,0,0,21.043,0H18.185a1.837,1.837,0,0,0-1.409.657.611.611,0,0,0-.227-.044H15.323a1.841,1.841,0,0,0-1.839,1.839V3.729a15.261,15.261,0,0,0-2.659,1.494L10.7,5.1a1.827,1.827,0,0,0-1.3-.539h0A1.827,1.827,0,0,0,8.1,5.1l-.867.867a.615.615,0,0,0-.111.151A2.435,2.435,0,0,0,5.5,6.836L3.766,8.57a2.435,2.435,0,0,0-.716,1.623A.615.615,0,0,0,2.9,10.3l-.867.867a1.839,1.839,0,0,0,0,2.6l1.642,1.641v1.8a4.29,4.29,0,0,0-1.595,7.926,4.292,4.292,0,1,0,4.416,0A4.29,4.29,0,0,0,4.9,17.211V16.037q.083.008.167.008a1.834,1.834,0,0,0,1.3-.537l.434-.434a.613.613,0,1,0,.867-.867L4.633,11.171a1.226,1.226,0,0,1,0-1.734L6.368,7.7A1.226,1.226,0,0,1,8.1,7.7l3.035,3.035A.613.613,0,1,0,12,9.872l.434-.434a1.842,1.842,0,0,0,0-2.6l-.731-.731a14.036,14.036,0,0,1,1.785-1.032,1.842,1.842,0,0,0,1.831,1.67h.1l-.092.5a.613.613,0,1,0,1.206.219L17.582,1.73a.613.613,0,0,1,.6-.5h1.429V4.292a.613.613,0,0,0,1.226,0V1.226h.2a.613.613,0,0,1,.6.5L22.69,7.467A.613.613,0,1,0,23.9,7.247l-.092-.5h.1a1.842,1.842,0,0,0,1.831-1.67,14.064,14.064,0,0,1,1.786,1.032l-.731.731a1.841,1.841,0,0,0,0,2.6l.433.434a.613.613,0,1,0,.867.867l.427-.427.007-.006.006-.007L31.127,7.7a1.226,1.226,0,0,1,1.734,0l.74.74L32.056,9.989a.613.613,0,1,0,.867.867L34.468,9.31l.127.127a1.226,1.226,0,0,1,0,1.734L31.56,14.206a.613.613,0,1,0,.867.867l.434.433a1.833,1.833,0,0,0,1.3.538c.056,0,.111,0,.167-.008v1.174a4.29,4.29,0,0,0-1.595,7.925,4.292,4.292,0,1,0,4.416,0Zm-29.8,3.679A3.065,3.065,0,1,1,4.287,25.75a3.065,3.065,0,0,1,3.065,3.065Zm0-7.357a3.065,3.065,0,1,1-3.065-3.065A3.065,3.065,0,0,1,7.353,21.458ZM5.935,14.207,5.5,14.64a.614.614,0,0,1-.867,0L2.9,12.906a.613.613,0,0,1,0-.867l.488-.488a2.466,2.466,0,0,0,.379.488ZM11.57,8.571,11.137,9,8.969,6.836a2.466,2.466,0,0,0-.488-.379l.488-.488A.609.609,0,0,1,9.4,5.79h0a.609.609,0,0,1,.434.18l.481.481.008.008L11.571,7.7a.614.614,0,0,1,0,.867Zm4.077-3.053h-.324A.614.614,0,0,1,14.71,4.9V2.452a.614.614,0,0,1,.613-.613h.993Zm8.872-1.376V4.9a.614.614,0,0,1-.613.613h-.324l-.669-3.679h.993a.614.614,0,0,1,.613.613ZM30.26,6.836,28.092,9l-.434-.433a.614.614,0,0,1,0-.867l1.734-1.734a.613.613,0,0,1,.867,0l.488.488A2.466,2.466,0,0,0,30.26,6.836Zm3.468,7.8-.434-.434,2.168-2.168a2.466,2.466,0,0,0,.379-.488l.488.488a.613.613,0,0,1,0,.867L34.6,14.64a.614.614,0,0,1-.867,0Zm-1.852,6.818a3.065,3.065,0,1,1,3.065,3.065A3.065,3.065,0,0,1,31.876,21.458Zm3.065,10.422a3.065,3.065,0,1,1,3.065-3.065A3.065,3.065,0,0,1,34.942,31.881Z" transform="translate(0.005 0)" fill="#06abc5"/>
      <path id="Path_22" data-name="Path 22" d="M433.839,352a1.839,1.839,0,1,0,1.839,1.839A1.839,1.839,0,0,0,433.839,352Zm0,2.452a.613.613,0,1,1,.613-.613A.613.613,0,0,1,433.839,354.452Z" transform="translate(-398.893 -325.024)" fill="#06abc5"/>
      <path id="Path_23" data-name="Path 23" d="M336.376,151.531a.614.614,0,1,0-.28-.377A.614.614,0,0,0,336.376,151.531Z" transform="translate(-310.321 -138.864)" fill="#06abc5"/>
      <path id="Path_24" data-name="Path 24" d="M258.754,114.914a33,33,0,0,1,3.727,1.6.6.6,0,0,0,.274.065.613.613,0,0,0,.274-1.162,34.352,34.352,0,0,0-3.879-1.666.613.613,0,1,0-.4,1.16Z" transform="translate(-238.539 -105.005)" fill="#06abc5"/>
      <path id="Path_25" data-name="Path 25" d="M155.783,138.549a.61.61,0,0,0,.322-.092c.723-.447,1.507-.885,2.328-1.3a.613.613,0,0,0-.554-1.094c-.852.431-1.666.886-2.419,1.352a.613.613,0,0,0,.323,1.134Z" transform="translate(-143.278 -125.574)" fill="#06abc5"/>
      <path id="Path_26" data-name="Path 26" d="M136.044,412.319a.613.613,0,0,0-.854.152,19.7,19.7,0,0,1-5.358,4.848,7.9,7.9,0,0,1-8.72,0,19.7,19.7,0,0,1-5.357-4.848.613.613,0,1,0-1.006.7,20.887,20.887,0,0,0,5.687,5.17,9.123,9.123,0,0,0,10.071,0,20.889,20.889,0,0,0,5.687-5.17A.613.613,0,0,0,136.044,412.319Z" transform="translate(-105.854 -380.619)" fill="#06abc5"/>
      <path id="Path_27" data-name="Path 27" d="M114.676,166.419a.613.613,0,0,0,.858-.124c1.731-2.314,4.813-4.094,7.094-5.181a.613.613,0,1,0-.527-1.107c-2.406,1.146-5.668,3.039-7.549,5.553A.613.613,0,0,0,114.676,166.419Z" transform="translate(-105.66 -147.69)" fill="#06abc5"/>
      <path id="Path_28" data-name="Path 28" d="M109.534,142.909a.613.613,0,0,0,.425-1.055l-.92-.883a.613.613,0,1,0-.849.885l.92.883A.611.611,0,0,0,109.534,142.909Z" transform="translate(-99.724 -130.01)" fill="#06abc5"/>
      <ellipse id="Ellipse_5" data-name="Ellipse 5" cx="1" cy="0.5" rx="1" ry="0.5" transform="translate(6.15 9.456)" fill="#06abc5"/>
      <circle id="Ellipse_6" data-name="Ellipse 6" cx="0.5" cy="0.5" r="0.5" transform="translate(30.15 11.456)" fill="#06abc5"/>
      <path id="Path_29" data-name="Path 29" d="M233.226,73.839V72.613a.613.613,0,1,0-1.226,0v1.226a.613.613,0,1,0,1.226,0Z" transform="translate(-214.22 -66.482)" fill="#06abc5"/>
      <path id="Path_30" data-name="Path 30" d="M219.249,121.841a3.666,3.666,0,0,1-2.1-1.536.613.613,0,1,0-1.094.553,4.848,4.848,0,0,0,2.8,2.145c.07.024,6.99,2.428,9.944,6.376a.613.613,0,1,0,.982-.734C226.6,124.4,219.552,121.945,219.249,121.841Z" transform="translate(-199.435 -110.774)" fill="#06abc5"/>
    </g>
  </g>
</svg>
