<svg xmlns="http://www.w3.org/2000/svg" width="14.938" height="12.607" viewBox="0 0 14.938 12.607"><defs><style>.a{fill:#fff;}</style></defs><path class="a" d="M253.827,246h-4.585a5.157,5.157,0,1,0,0,10.315h4.346l2.124,2.124a.573.573,0,0,0,.942-.2l2.031-5.246a5.048,5.048,0,0,0,.336-1.834A5.2,5.2,0,0,0,253.827,246Zm-5.675,6.181a1.018,1.018,0,1,1,1.018-1.018A1.018,1.018,0,0,1,248.152,252.181Zm3.383,0a1.018,1.018,0,1,1,1.018-1.018A1.018,1.018,0,0,1,251.535,252.181Zm3.383,0a1.018,1.018,0,1,1,1.018-1.018A1.018,1.018,0,0,1,254.917,252.181Z" transform="translate(-244.084 -246)"/></svg>