<?xml version="1.0"?>
<svg xmlns="http://www.w3.org/2000/svg" height="512px" viewBox="-192 0 512 512" width="512px"><g><path d="m128 256c0 35.347656-28.652344 64-64 64s-64-28.652344-64-64 28.652344-64 64-64 64 28.652344 64 64zm0 0" data-original="#000000" class="active-path" data-old_color="#000000" fill="#06ABC5"/><path d="m128 64c0 35.347656-28.652344 64-64 64s-64-28.652344-64-64 28.652344-64 64-64 64 28.652344 64 64zm0 0" data-original="#000000" class="active-path" data-old_color="#000000" fill="#06ABC5"/><path d="m128 448c0 35.347656-28.652344 64-64 64s-64-28.652344-64-64 28.652344-64 64-64 64 28.652344 64 64zm0 0" data-original="#000000" class="active-path" data-old_color="#000000" fill="#06ABC5"/></g> </svg>
