<svg xmlns="http://www.w3.org/2000/svg" xmlns:xlink="http://www.w3.org/1999/xlink" viewBox="0 0 100 125" version="1.1" x="0px" y="0px"><title>Profile 0.2</title><desc>Created with Sketch.</desc><g stroke="none" stroke-width="1" fill="none" fill-rule="evenodd"><g fill-rule="nonzero" fill="#000000"><path d="M57.6935413,57.4810519 C54.9724907,54.7151215 51.1865394,53 47,53 C38.7157288,53 32,59.7157288 32,68 C32,68.5522847 31.5522847,69 31,69 C30.4477153,69 30,68.5522847 30,68 C30,58.6111593 37.6111593,51 47,51 C51.9365488,51 56.3816504,53.1041356 59.487371,56.4644731 C58.8370685,56.7146467 58.2335456,57.0590859 57.6935413,57.4810519 L57.6935413,57.4810519 Z M47,49 C41.4771525,49 37,44.5228475 37,39 C37,33.4771525 41.4771525,29 47,29 C52.5228475,29 57,33.4771525 57,39 C57,44.5228475 52.5228475,49 47,49 Z M47,47 C51.418278,47 55,43.418278 55,39 C55,34.581722 51.418278,31 47,31 C42.581722,31 39,34.581722 39,39 C39,43.418278 42.581722,47 47,47 Z M62,72 C57.0294373,72 53,67.9705627 53,63 C53,58.0294373 57.0294373,54 62,54 C66.9705627,54 71,58.0294373 71,63 C71,67.9705627 66.9705627,72 62,72 Z M62,70 C65.8659932,70 69,66.8659932 69,63 C69,59.1340068 65.8659932,56 62,56 C58.1340068,56 55,59.1340068 55,63 C55,66.8659932 58.1340068,70 62,70 Z M64.8284271,64.4142136 C65.2189514,64.8047379 65.2189514,65.4379028 64.8284271,65.8284271 C64.4379028,66.2189514 63.8047379,66.2189514 63.4142136,65.8284271 L62.1767767,64.5909903 C62.0791456,64.4933592 61.9208544,64.4933592 61.8232233,64.5909903 L60.5857864,65.8284271 C60.1952621,66.2189514 59.5620972,66.2189514 59.1715729,65.8284271 C58.7810486,65.4379028 58.7810486,64.8047379 59.1715729,64.4142136 L60.4090097,63.1767767 C60.5066408,63.0791456 60.5066408,62.9208544 60.4090097,62.8232233 L59.1715729,61.5857864 C58.7810486,61.1952621 58.7810486,60.5620972 59.1715729,60.1715729 C59.5620972,59.7810486 60.1952621,59.7810486 60.5857864,60.1715729 L61.8232233,61.4090097 C61.9208544,61.5066408 62.0791456,61.5066408 62.1767767,61.4090097 L63.4142136,60.1715729 C63.8047379,59.7810486 64.4379028,59.7810486 64.8284271,60.1715729 C65.2189514,60.5620972 65.2189514,61.1952621 64.8284271,61.5857864 L63.5909903,62.8232233 C63.4933592,62.9208544 63.4933592,63.0791456 63.5909903,63.1767767 L64.8284271,64.4142136 Z"/></g></g><text x="0" y="115" fill="#000000" font-size="5px" font-weight="bold" font-family="'Helvetica Neue', Helvetica, Arial-Unicode, Arial, Sans-serif">Created by Landan Lloyd</text><text x="0" y="120" fill="#000000" font-size="5px" font-weight="bold" font-family="'Helvetica Neue', Helvetica, Arial-Unicode, Arial, Sans-serif">from the Noun Project</text></svg>