<svg xmlns="http://www.w3.org/2000/svg" width="318.802" height="211.338" viewBox="0 0 318.802 211.338">
  <g id="OBJECTS" transform="translate(-91.92 -59.6)">
    <g id="Group_318" data-name="Group 318" transform="translate(91.92 59.6)">
      <g id="Group_317" data-name="Group 317">
        <g id="Group_241" data-name="Group 241" transform="translate(14.169)">
          <path id="Path_102" data-name="Path 102" d="M525.238,244.7a2.172,2.172,0,1,1-2.171-2.172A2.174,2.174,0,0,1,525.238,244.7Zm-1.077,0a1.1,1.1,0,1,0-1.095,1.1A1.1,1.1,0,0,0,524.162,244.7Z" transform="translate(-293.51 -139.52)" fill="#91a8f6"/>
          <g id="Group_233" data-name="Group 233" transform="translate(249.083 25.646)">
            <path id="Path_103" data-name="Path 103" d="M583.49,105.148h-12.3a.538.538,0,0,0,0,1.076h12.3a.538.538,0,1,0,0-1.076Z" transform="translate(-564.331 -105.146)" fill="#91a8f6"/>
            <path id="Path_104" data-name="Path 104" d="M562.37,105.144h-2.4a.538.538,0,1,0,0,1.077h2.4a.538.538,0,1,0,0-1.077Z" transform="translate(-559.428 -105.144)" fill="#91a8f6"/>
            <path id="Path_105" data-name="Path 105" d="M572.808,112.342a.538.538,0,0,1-.538.538h-1.539a.538.538,0,0,1,0-1.077h1.539A.538.538,0,0,1,572.808,112.342Zm-4.229,0a.538.538,0,0,1-.538.538h-2.691a.538.538,0,1,1,0-1.077h2.691A.538.538,0,0,1,568.579,112.342Zm-5.382,0a.538.538,0,0,1-.538.538h-2.691a.538.538,0,0,1,0-1.077h2.691A.538.538,0,0,1,563.2,112.342Z" transform="translate(-559.429 -108.054)" fill="#91a8f6"/>
          </g>
          <g id="Group_234" data-name="Group 234" transform="translate(65.457 57.787)">
            <path id="Path_106" data-name="Path 106" d="M238.583,169.04a.538.538,0,0,0-.538.538v1.248a.538.538,0,0,0,1.077,0v-1.248A.538.538,0,0,0,238.583,169.04Z" transform="translate(-235.388 -165.202)" fill="#91a8f6"/>
            <path id="Path_107" data-name="Path 107" d="M235.114,166.816h-1.249a.538.538,0,0,0,0,1.077h1.249a.538.538,0,0,0,0-1.077Z" transform="translate(-233.327 -164.23)" fill="#91a8f6"/>
            <path id="Path_108" data-name="Path 108" d="M238.583,162.224a.538.538,0,0,0-.538.538v1.248a.538.538,0,1,0,1.077,0v-1.248A.538.538,0,0,0,238.583,162.224Z" transform="translate(-235.388 -162.224)" fill="#91a8f6"/>
            <path id="Path_109" data-name="Path 109" d="M242.334,166.664h-1.249a.538.538,0,0,0,0,1.076h1.249a.538.538,0,0,0,0-1.076Z" transform="translate(-236.481 -164.164)" fill="#91a8f6"/>
          </g>
          <g id="Group_235" data-name="Group 235" transform="translate(200.825 22.895)">
            <path id="Path_110" data-name="Path 110" d="M478.984,107.076a.538.538,0,0,0-.538.538v1.248a.538.538,0,1,0,1.077,0v-1.248A.538.538,0,0,0,478.984,107.076Z" transform="translate(-475.789 -103.237)" fill="#91a8f6"/>
            <path id="Path_111" data-name="Path 111" d="M475.515,104.852h-1.249a.538.538,0,0,0,0,1.076h1.249a.538.538,0,0,0,0-1.076Z" transform="translate(-473.728 -102.266)" fill="#91a8f6"/>
            <path id="Path_112" data-name="Path 112" d="M478.984,100.259a.538.538,0,0,0-.538.538v1.248a.538.538,0,0,0,1.077,0V100.8A.538.538,0,0,0,478.984,100.259Z" transform="translate(-475.789 -100.259)" fill="#91a8f6"/>
            <path id="Path_113" data-name="Path 113" d="M482.735,104.7h-1.249a.538.538,0,0,0,0,1.076h1.249a.538.538,0,0,0,0-1.076Z" transform="translate(-476.882 -102.199)" fill="#91a8f6"/>
          </g>
          <g id="Group_236" data-name="Group 236" transform="translate(134.687)">
            <path id="Path_114" data-name="Path 114" d="M380.334,59.6h-12.3a.538.538,0,0,0,0,1.076h12.3a.538.538,0,1,0,0-1.076Z" transform="translate(-361.175 -59.602)" fill="#91a8f6"/>
            <path id="Path_115" data-name="Path 115" d="M359.214,59.6h-2.4a.538.538,0,0,0,0,1.076h2.4a.538.538,0,1,0,0-1.076Z" transform="translate(-356.272 -59.6)" fill="#91a8f6"/>
            <path id="Path_116" data-name="Path 116" d="M369.652,66.8a.538.538,0,0,1-.538.538h-1.539a.538.538,0,0,1,0-1.076h1.539A.538.538,0,0,1,369.652,66.8Zm-4.229,0a.538.538,0,0,1-.538.538h-2.691a.538.538,0,0,1,0-1.076h2.691A.538.538,0,0,1,365.422,66.8Zm-5.382,0a.538.538,0,0,1-.538.538h-2.691a.538.538,0,1,1,0-1.076H359.5A.538.538,0,0,1,360.04,66.8Z" transform="translate(-356.272 -62.51)" fill="#91a8f6"/>
          </g>
          <path id="Path_117" data-name="Path 117" d="M625.128,158.259a1.9,1.9,0,1,0,1.9-1.9A1.9,1.9,0,0,0,625.128,158.259Z" transform="translate(-339.05 -101.875)" fill="#91a8f6"/>
          <g id="Group_237" data-name="Group 237" transform="translate(30.093 148.422)">
            <path id="Path_118" data-name="Path 118" d="M182.284,324.258h12.3a.538.538,0,0,0,0-1.076h-12.3a.538.538,0,1,0,0,1.076Z" transform="translate(-175.427 -323.182)" fill="#91a8f6"/>
            <path id="Path_119" data-name="Path 119" d="M171.062,324.262h2.4a.538.538,0,0,0,0-1.076h-2.4a.538.538,0,1,0,0,1.076Z" transform="translate(-170.524 -323.184)" fill="#91a8f6"/>
          </g>
          <path id="Path_120" data-name="Path 120" d="M591.327,340.636s.735,5.242-5.389,5.121c0,0,5.26.053,5.122,4.973,0,0,.473-3.87,5.3-4.734C596.36,346,592.281,346.931,591.327,340.636Z" transform="translate(-321.928 -182.386)" fill="#91a8f6"/>
          <path id="Path_121" data-name="Path 121" d="M643.246,209.323s.735,5.242-5.389,5.121c0,0,5.26.053,5.121,4.973,0,0,.474-3.87,5.3-4.734C648.278,214.683,644.2,215.618,643.246,209.323Z" transform="translate(-344.611 -125.015)" fill="#91a8f6"/>
          <path id="Path_122" data-name="Path 122" d="M298.341,83.28s.735,5.242-5.389,5.121c0,0,5.26.054,5.122,4.973,0,0,.473-3.869,5.3-4.734C303.374,88.64,299.295,89.575,298.341,83.28Z" transform="translate(-193.921 -69.946)" fill="#91a8f6"/>
          <path id="Path_123" data-name="Path 123" d="M204.728,108.99s.735,5.242-5.388,5.121c0,0,5.26.054,5.121,4.973,0,0,.473-3.87,5.3-4.734C209.761,114.35,205.683,115.286,204.728,108.99Z" transform="translate(-153.021 -81.179)" fill="#91a8f6"/>
          <path id="Path_124" data-name="Path 124" d="M264.192,69.2s.256,1.827-1.878,1.785c0,0,1.834.019,1.784,1.734a2.081,2.081,0,0,1,1.848-1.651S264.524,71.394,264.192,69.2Z" transform="translate(-180.535 -63.794)" fill="#91a8f6"/>
          <path id="Path_125" data-name="Path 125" d="M434.483,181.07s.256,1.827-1.878,1.785c0,0,1.834.019,1.784,1.734a2.082,2.082,0,0,1,1.848-1.651S434.815,183.264,434.483,181.07Z" transform="translate(-254.936 -112.671)" fill="#91a8f6"/>
          <path id="Path_126" data-name="Path 126" d="M118.96,236.533s.256,1.827-1.878,1.785c0,0,1.833.019,1.784,1.734a2.08,2.08,0,0,1,1.848-1.65S119.292,238.727,118.96,236.533Z" transform="translate(-117.082 -136.903)" fill="#91a8f6"/>
          <path id="Path_127" data-name="Path 127" d="M402.105,324.013s.256,1.827-1.879,1.786c0,0,1.834.019,1.784,1.733a2.081,2.081,0,0,1,1.848-1.65S402.437,326.207,402.105,324.013Z" transform="translate(-240.79 -175.123)" fill="#91a8f6"/>
          <g id="Group_238" data-name="Group 238" transform="translate(74.048 109.684)">
            <path id="Path_128" data-name="Path 128" d="M263.3,264.144H251.356a2.771,2.771,0,0,1-.089-5.541,4.289,4.289,0,0,1,7.881-2.269A3.11,3.11,0,0,1,262.6,258.6h.7a2.771,2.771,0,0,1,0,5.543Zm-11.945-4.722a1.951,1.951,0,1,0,0,3.9H263.3a1.951,1.951,0,1,0,0-3.9h-1.379l-.055-.346a2.292,2.292,0,0,0-2.827-1.887l-.3.072-.151-.271a3.468,3.468,0,0,0-6.5,1.686c0,.1.007.2.015.3l.038.445Z" transform="translate(-248.584 -254.387)" fill="#91a8f6"/>
          </g>
          <g id="Group_239" data-name="Group 239" transform="translate(287.146 8.593)">
            <path id="Path_129" data-name="Path 129" d="M641.74,84.618H629.795a2.771,2.771,0,0,1-.088-5.541,4.288,4.288,0,0,1,7.88-2.269,3.112,3.112,0,0,1,3.455,2.268h.7a2.771,2.771,0,0,1,0,5.543ZM629.795,79.9a1.951,1.951,0,0,0,0,3.9H641.74a1.951,1.951,0,1,0,0-3.9h-1.379l-.055-.346a2.293,2.293,0,0,0-2.827-1.887l-.3.072-.151-.271a3.469,3.469,0,0,0-6.5,1.687c0,.1.007.2.016.3l.038.445Z" transform="translate(-627.024 -74.861)" fill="#91a8f6"/>
          </g>
          <g id="Group_240" data-name="Group 240" transform="translate(102.188 39.091)">
            <path id="Path_130" data-name="Path 130" d="M313.275,138.779H301.329a2.771,2.771,0,0,1-.088-5.541,4.288,4.288,0,0,1,7.88-2.269,3.112,3.112,0,0,1,3.455,2.268h.7a2.771,2.771,0,1,1,0,5.542Zm-11.945-4.722a1.951,1.951,0,1,0,0,3.9h11.945a1.951,1.951,0,0,0,0-3.9H311.9l-.055-.346a2.293,2.293,0,0,0-2.827-1.887l-.3.072-.151-.271a3.469,3.469,0,0,0-6.5,1.686c0,.1.007.2.016.3l.038.445Z" transform="translate(-298.558 -129.022)" fill="#91a8f6"/>
          </g>
        </g>
        <g id="Group_272" data-name="Group 272" transform="translate(100.15 93.852)">
          <g id="Group_243" data-name="Group 243" transform="translate(48.389 59.639)">
            <path id="Path_131" data-name="Path 131" d="M375.656,382.586h0a9.654,9.654,0,0,1-11.917-6.661l-7.66-27.071a9.654,9.654,0,0,1,6.661-11.918h0a9.655,9.655,0,0,1,11.918,6.661l7.66,27.072A9.653,9.653,0,0,1,375.656,382.586Z" transform="translate(-355.711 -334.1)" fill="#93c7ea"/>
            <path id="Path_132" data-name="Path 132" d="M369.47,389.463h0a9.654,9.654,0,0,1-.132-13.652l19.7-20.086a9.654,9.654,0,0,1,13.652-.132h0a9.653,9.653,0,0,1,.132,13.652l-19.7,20.086A9.654,9.654,0,0,1,369.47,389.463Z" transform="translate(-360.458 -341.205)" fill="#93c7ea"/>
            <g id="Group_242" data-name="Group 242" transform="translate(32.004)">
              <path id="Path_133" data-name="Path 133" d="M429.309,346.455A8.459,8.459,0,1,1,417.58,344.1,8.459,8.459,0,0,1,429.309,346.455Z" transform="translate(-413.099 -336.772)" fill="#ff8383"/>
              <path id="Path_134" data-name="Path 134" d="M416.052,349.914h0a2.2,2.2,0,0,1-2.684-1.585l-.75-2.911a2.2,2.2,0,0,1,1.585-2.684h0a2.2,2.2,0,0,1,2.685,1.585l.749,2.911A2.2,2.2,0,0,1,416.052,349.914Z" transform="translate(-412.547 -336.763)" fill="#ff8383"/>
              <path id="Path_135" data-name="Path 135" d="M428.086,335.314l-3,7.588a2.288,2.288,0,0,1-2.969,1.288h0a2.289,2.289,0,0,1-1.288-2.969l3-7.588a2.288,2.288,0,0,1,2.969-1.287h0A2.288,2.288,0,0,1,428.086,335.314Z" transform="translate(-416.097 -332.185)" fill="#ff8383"/>
              <path id="Path_136" data-name="Path 136" d="M437.044,338l-3.62,7.311a2.287,2.287,0,0,1-3.065,1.036h0a2.288,2.288,0,0,1-1.035-3.066l3.619-7.311a2.289,2.289,0,0,1,3.066-1.036h0A2.288,2.288,0,0,1,437.044,338Z" transform="translate(-419.773 -333.283)" fill="#ff8383"/>
              <path id="Path_137" data-name="Path 137" d="M443.107,344.92l-5.055,6.4a2.289,2.289,0,0,1-3.214.378h0a2.289,2.289,0,0,1-.378-3.214l5.054-6.4a2.289,2.289,0,0,1,3.214-.378h0A2.289,2.289,0,0,1,443.107,344.92Z" transform="translate(-421.906 -336.13)" fill="#ff8383"/>
            </g>
          </g>
          <g id="Group_263" data-name="Group 263" transform="translate(28.664 0)">
            <g id="Group_244" data-name="Group 244" transform="translate(11.495 30.649)">
              <path id="Rectangle_58" data-name="Rectangle 58" d="M0,0H11.278a0,0,0,0,1,0,0V15.814a5.639,5.639,0,0,1-5.639,5.639h0A5.639,5.639,0,0,1,0,15.814V0A0,0,0,0,1,0,0Z" transform="translate(0.843 0.613) rotate(2.253)" fill="#ff8383"/>
              <path id="Path_138" data-name="Path 138" d="M353.723,281.143l-11.269-.443-.174,4.426a7.416,7.416,0,0,0,7.69,7.829,7.772,7.772,0,0,0,3.33-1.023Z" transform="translate(-341.61 -280.7)" fill="#d15e79"/>
            </g>
            <g id="Group_262" data-name="Group 262" transform="translate(0)">
              <ellipse id="Ellipse_12" data-name="Ellipse 12" cx="14.054" cy="10.824" rx="14.054" ry="10.824" transform="translate(0 12.831) rotate(-15.799)" fill="#1b2a67"/>
              <ellipse id="Ellipse_13" data-name="Ellipse 13" cx="12.486" cy="8.128" rx="12.486" ry="8.128" transform="translate(11.527 12.966) rotate(-9.641)" fill="#1b2a67"/>
              <ellipse id="Ellipse_14" data-name="Ellipse 14" cx="12.486" cy="8.128" rx="12.486" ry="8.128" transform="matrix(0.734, -0.679, 0.679, 0.734, 3.571, 16.95)" fill="#1b2a67"/>
              <path id="Path_139" data-name="Path 139" d="M358.963,265.183c1.109,6.217-2.144,12-7.266,12.912h0c-5.121.914-10.173-3.385-11.282-9.6l-.873-4.893c-1.109-6.217,2.143-12,7.264-12.912h0c5.122-.914,10.175,3.385,11.284,9.6Z" transform="translate(-328.826 -236.886)" fill="#ff8383"/>
              <path id="Path_140" data-name="Path 140" d="M344.15,248.437c-2.833-2.564-7.763-1.324-11.012,2.77s-3.586,9.491-.753,12.055,7.763,1.324,11.012-2.77S346.983,251,344.15,248.437Z" transform="translate(-324.954 -235.372)" fill="#1b2a67"/>
              <g id="Group_261" data-name="Group 261" transform="translate(3.751 22.521)">
                <g id="Group_255" data-name="Group 255" transform="translate(12.214 0.391)">
                  <g id="Group_248" data-name="Group 248" transform="translate(4.585 2.497)">
                    <g id="Group_245" data-name="Group 245" transform="translate(0 0.003)">
                      <path id="Path_141" data-name="Path 141" d="M357.689,272.9a.513.513,0,0,1-.3-.935,3.334,3.334,0,0,1,3.434-.146.515.515,0,0,1-.519.891,2.286,2.286,0,0,0-2.33.1A.514.514,0,0,1,357.689,272.9Z" transform="translate(-357.174 -271.4)" fill="#86294e"/>
                    </g>
                    <g id="Group_246" data-name="Group 246" transform="translate(6.006)">
                      <path id="Path_142" data-name="Path 142" d="M371.235,272.9a.507.507,0,0,1-.291-.091h0a2.286,2.286,0,0,0-2.33-.1.515.515,0,0,1-.519-.891,3.315,3.315,0,0,1,3.434.146.514.514,0,0,1-.294.937Z" transform="translate(-367.84 -271.395)" fill="#86294e"/>
                    </g>
                    <g id="Group_247" data-name="Group 247" transform="translate(1.765 2.335)">
                      <path id="Path_143" data-name="Path 143" d="M361.382,276.1a.537.537,0,1,1-.516-.557A.537.537,0,0,1,361.382,276.1Z" transform="translate(-360.308 -275.541)" fill="#86294e"/>
                    </g>
                    <path id="Path_144" data-name="Path 144" d="M370.535,276.459a.537.537,0,1,1-.516-.557A.537.537,0,0,1,370.535,276.459Z" transform="translate(-362.542 -273.364)" fill="#86294e"/>
                  </g>
                  <g id="Group_252" data-name="Group 252">
                    <g id="Group_249" data-name="Group 249" transform="translate(9.599 0.877)">
                      <path id="Path_145" data-name="Path 145" d="M370.31,276.972c-.057,0-.114,0-.172,0a4.187,4.187,0,1,1,.172,0Zm-.009-7.739a3.512,3.512,0,0,0-.135,7.022,3.564,3.564,0,0,0,2.523-.931,3.511,3.511,0,0,0-2.245-6.088Z" transform="translate(-366.079 -268.519)" fill="#ffd2d4"/>
                    </g>
                    <g id="Group_250" data-name="Group 250">
                      <path id="Path_146" data-name="Path 146" d="M353.783,276.454c-.064,0-.128,0-.191,0a4.745,4.745,0,0,1-3.035-8.226,4.747,4.747,0,0,1,6.706.263,4.747,4.747,0,0,1-3.479,7.968Zm-.01-8.689a3.942,3.942,0,0,0-3.935,3.788h0a3.947,3.947,0,0,0,3.786,4.094,3.943,3.943,0,1,0,.31-7.879C353.879,267.766,353.826,267.766,353.773,267.766Z" transform="translate(-349.032 -266.962)" fill="#ffd2d4"/>
                    </g>
                    <g id="Group_251" data-name="Group 251" transform="translate(8.319 4.752)">
                      <path id="Path_147" data-name="Path 147" d="M364.159,276.137l1.746.069a.367.367,0,0,0,.382-.353h0a.367.367,0,0,0-.352-.382l-1.746-.069a.368.368,0,0,0-.382.353h0A.368.368,0,0,0,364.159,276.137Z" transform="translate(-363.806 -275.401)" fill="#ffd2d4"/>
                    </g>
                  </g>
                  <g id="Group_253" data-name="Group 253" transform="translate(9.164 6.981)">
                    <path id="Path_148" data-name="Path 148" d="M368.311,280.34a1.665,1.665,0,0,1-1.59,1.248c-.829.076-1.46-.359-1.411-.972a1.665,1.665,0,0,1,1.591-1.249C367.729,279.291,368.36,279.727,368.311,280.34Z" transform="translate(-365.307 -279.359)" fill="#86294e"/>
                  </g>
                  <g id="Group_254" data-name="Group 254" transform="translate(6.546 10.656)">
                    <path id="Path_149" data-name="Path 149" d="M365.927,286.492a2.693,2.693,0,0,1-2.893,2.467,2.73,2.73,0,0,1-2.376-3.011A13.35,13.35,0,0,1,365.927,286.492Z" transform="translate(-360.657 -285.887)" fill="#86294e"/>
                    <path id="Path_150" data-name="Path 150" d="M363.691,287.382c-1.219-.141-1.97-.559-2.042-1.475a13.278,13.278,0,0,1,4.447.494C365.888,287.226,364.886,287.519,363.691,287.382Z" transform="translate(-361.09 -285.886)" fill="#ffd2d4"/>
                  </g>
                </g>
                <g id="Group_260" data-name="Group 260" transform="translate(0 0)">
                  <g id="Group_258" data-name="Group 258" transform="translate(9.407 11.062)">
                    <g id="Group_256" data-name="Group 256">
                      <path id="Path_151" data-name="Path 151" d="M352.4,289.538h0l-3.03,0a4.919,4.919,0,0,1-3.3-1.271l-1.9-1.711a.368.368,0,0,1,.493-.546l1.9,1.711a4.187,4.187,0,0,0,2.811,1.082l3.03,0a.368.368,0,1,1,0,.735Z" transform="translate(-344.047 -285.912)" fill="#201028"/>
                    </g>
                    <g id="Group_257" data-name="Group 257" transform="translate(6.387 2.521)">
                      <path id="Path_152" data-name="Path 152" d="M357.354,291.862h-1.229a.736.736,0,0,1,0-1.471h0l1.228,0a.735.735,0,0,1,0,1.471Z" transform="translate(-355.39 -290.389)" fill="#ffd2d4"/>
                    </g>
                  </g>
                  <g id="Group_259" data-name="Group 259">
                    <circle id="Ellipse_15" data-name="Ellipse 15" cx="6.16" cy="6.16" r="6.16" transform="matrix(0.341, -0.94, 0.94, 0.341, 0, 11.584)" fill="#06abc5"/>
                    <ellipse id="Ellipse_16" data-name="Ellipse 16" cx="5.259" cy="4.808" rx="5.259" ry="4.808" transform="matrix(0.039, -0.999, 0.999, 0.039, 1.978, 12.92)" fill="#bee9f0"/>
                    <path id="Path_153" data-name="Path 153" d="M338.521,278.565a1.706,1.706,0,1,1-1.568-2.194A1.938,1.938,0,0,1,338.521,278.565Z" transform="translate(-330.782 -270.681)" fill="#e0eef7"/>
                  </g>
                </g>
              </g>
            </g>
          </g>
          <g id="Group_264" data-name="Group 264" transform="translate(17.168 42.814)">
            <path id="Path_154" data-name="Path 154" d="M338.284,378.445l-29.467.83a8.9,8.9,0,0,1-8.545-9.244l1.862-49.312a6.128,6.128,0,0,1,4.264-5.6l21.967-6.995,17.56,8.416a6.127,6.127,0,0,1,3.475,5.767L347.529,369.9A8.9,8.9,0,0,1,338.284,378.445Z" transform="translate(-300.266 -304.847)" fill="#93c7ea"/>
            <path id="Path_155" data-name="Path 155" d="M378.9,333.313c.1,5.142.042,10.278-.042,15.412-.068,5.135-.251,10.266-.434,15.4-.219,5.129-.44,10.258-.774,15.383a13.7,13.7,0,0,1-.609,3.924,8.933,8.933,0,0,1-9.257,6.021,8.937,8.937,0,0,0,6.626-3.109,8.36,8.36,0,0,0,1.747-3.2,12.75,12.75,0,0,0,.363-3.684c.068-5.135.251-10.266.436-15.4.22-5.129.441-10.258.777-15.383C378.05,343.556,378.395,338.432,378.9,333.313Z" transform="translate(-329.764 -315.852)" fill="#6eacce"/>
            <path id="Rectangle_59" data-name="Rectangle 59" d="M3.786,0H12.15a3.787,3.787,0,0,1,3.787,3.787V11.6a0,0,0,0,1,0,0H0a0,0,0,0,1,0,0V3.786A3.786,3.786,0,0,1,3.786,0Z" transform="translate(21.008 0) rotate(3.691)" fill="#93c7ea"/>
          </g>
          <g id="Group_271" data-name="Group 271" transform="translate(0 57.402)">
            <g id="Group_265" data-name="Group 265">
              <path id="Path_156" data-name="Path 156" d="M275.731,372.766h0a9.653,9.653,0,0,1-5.213-12.618l10.791-25.983a9.654,9.654,0,0,1,12.618-5.213h0a9.654,9.654,0,0,1,5.213,12.618l-10.791,25.983A9.654,9.654,0,0,1,275.731,372.766Z" transform="translate(-269.777 -328.212)" fill="#93c7ea"/>
              <path id="Path_157" data-name="Path 157" d="M308.337,329.528a9.489,9.489,0,0,1,4.46,3.133,9.973,9.973,0,0,1,2.029,5.214,10.934,10.934,0,0,1-1.047,5.531l-2.038,5.014c-1.4,3.326-2.8,6.65-4.308,9.93l-2.265,4.92c-.8,1.619-1.563,3.258-2.409,4.859.538-1.729,1.164-3.423,1.743-5.135l1.886-5.077c1.26-3.384,2.626-6.723,3.995-10.061l2.113-4.983a14.079,14.079,0,0,0,.914-2.424,9.37,9.37,0,0,0,.292-2.51A9.807,9.807,0,0,0,308.337,329.528Z" transform="translate(-284.187 -328.787)" fill="#6eacce"/>
            </g>
            <g id="Group_270" data-name="Group 270" transform="translate(0.603 18.293)">
              <g id="Group_268" data-name="Group 268" transform="translate(42.234)">
                <g id="Group_266" data-name="Group 266" transform="translate(0 3.42)">
                  <path id="Path_158" data-name="Path 158" d="M353.9,376l-4.916-.317a3.353,3.353,0,0,1-3.126-3.558l.143-2.216a3.353,3.353,0,0,1,3.557-3.126l4.916.317Zm-4.484-7.015a1.144,1.144,0,0,0-1.213,1.066l-.143,2.216a1.143,1.143,0,0,0,1.066,1.213l2.714.175.29-4.5Z" transform="translate(-345.851 -366.774)" fill="#86294e"/>
                </g>
                <g id="Group_267" data-name="Group 267" transform="translate(4.194)">
                  <path id="Path_159" data-name="Path 159" d="M361.935,380.414l-4.252-.274a4.685,4.685,0,0,1-4.374-4.977l.882-13.669c.1-1.525,13.7-.648,13.6.877l-.881,13.669A4.685,4.685,0,0,1,361.935,380.414Z" transform="translate(-353.299 -360.699)" fill="#d15e79"/>
                  <path id="Path_160" data-name="Path 160" d="M367.978,363.227c-.035.55-2.561.833-5.641.635s-5.547-.8-5.512-1.354,2.561-.833,5.641-.635S368.014,362.677,367.978,363.227Z" transform="translate(-354.84 -361.184)" fill="#86294e"/>
                </g>
              </g>
              <path id="Path_161" data-name="Path 161" d="M270.849,384.55h0a9.653,9.653,0,0,1,9.805-9.5l28.13.444a9.654,9.654,0,0,1,9.5,9.805h0a9.654,9.654,0,0,1-9.805,9.5l-28.13-.444A9.654,9.654,0,0,1,270.849,384.55Z" transform="translate(-270.848 -366.968)" fill="#93c7ea"/>
              <path id="Path_162" data-name="Path 162" d="M288.263,374.71c3.612-.247,7.222-.332,10.831-.392,3.609-.078,7.217-.039,10.825,0l5.411.124a10.961,10.961,0,0,1,5.491,1.24,9.991,9.991,0,0,1,3.977,3.939,9.5,9.5,0,0,1,1.1,5.34,9.81,9.81,0,0,0-5.581-8.268,9.485,9.485,0,0,0-2.417-.732,14.151,14.151,0,0,0-2.588-.126l-5.412-.047c-3.607-.075-7.214-.151-10.82-.343C295.471,375.27,291.866,375.071,288.263,374.71Z" transform="translate(-278.457 -366.63)" fill="#6eacce"/>
              <g id="Group_269" data-name="Group 269" transform="translate(36.813 4.309)">
                <circle id="Ellipse_17" data-name="Ellipse 17" cx="8.459" cy="8.459" r="8.459" transform="translate(0 13.019) rotate(-50.316)" fill="#ff8383"/>
                <path id="Path_163" data-name="Path 163" d="M348.552,377.23h0a2.022,2.022,0,0,1-1.25-2.573l.9-2.607a2.023,2.023,0,0,1,2.573-1.25h0a2.022,2.022,0,0,1,1.25,2.573l-.9,2.607A2.023,2.023,0,0,1,348.552,377.23Z" transform="translate(-341.015 -369.372)" fill="#ff8383"/>
                <path id="Path_164" data-name="Path 164" d="M370.754,381l-7.507.7a2.115,2.115,0,0,1-2.3-1.909h0a2.115,2.115,0,0,1,1.91-2.3l7.507-.7a2.114,2.114,0,0,1,2.3,1.909h0A2.115,2.115,0,0,1,370.754,381Z" transform="translate(-347.021 -372.032)" fill="#ff8383"/>
                <path id="Path_165" data-name="Path 165" d="M368.175,392.874l-7.524-.485a2.114,2.114,0,0,1-1.974-2.246h0a2.114,2.114,0,0,1,2.246-1.974l7.523.485a2.114,2.114,0,0,1,1.974,2.246h0A2.114,2.114,0,0,1,368.175,392.874Z" transform="translate(-346.032 -377.008)" fill="#ff8383"/>
              </g>
            </g>
          </g>
        </g>
        <g id="Group_282" data-name="Group 282" transform="translate(141.421 145.227)">
          <g id="Group_277" data-name="Group 277" transform="translate(87.915)">
            <g id="Group_273" data-name="Group 273" transform="translate(5.998 8.657)">
              <path id="Path_166" data-name="Path 166" d="M510.732,343.072a.882.882,0,0,1-.624-1.506l8.423-8.424a.882.882,0,0,1,1.247,1.247l-8.423,8.424A.876.876,0,0,1,510.732,343.072Z" transform="translate(-509.85 -332.883)" fill="#06abc5"/>
            </g>
            <g id="Group_276" data-name="Group 276">
              <g id="Group_274" data-name="Group 274">
                <path id="Path_167" data-name="Path 167" d="M500.081,331.185a.882.882,0,0,1-.882-.882V318.391a.882.882,0,1,1,1.764,0V330.3A.882.882,0,0,1,500.081,331.185Z" transform="translate(-499.199 -317.509)" fill="#06abc5"/>
              </g>
              <g id="Group_275" data-name="Group 275" transform="translate(11.165 23.079)">
                <path id="Path_168" data-name="Path 168" d="M531.823,360.259H519.909a.882.882,0,1,1,0-1.764h11.913a.882.882,0,1,1,0,1.764Z" transform="translate(-519.027 -358.495)" fill="#06abc5"/>
              </g>
            </g>
          </g>
          <g id="Group_281" data-name="Group 281" transform="translate(0 22.553)">
            <g id="Group_279" data-name="Group 279">
              <path id="Path_169" data-name="Path 169" d="M350.992,424.576h72.887c2.033,0,2.659-1.647,2.659-3.681H347.31A3.681,3.681,0,0,0,350.992,424.576Z" transform="translate(-344.923 -385.231)" fill="#6eacce"/>
              <path id="Path_170" data-name="Path 170" d="M344.913,420.9h25.836a3.954,3.954,0,0,1-4.181,3.681H344.8C342.421,424.542,342.531,420.9,344.913,420.9Z" transform="translate(-343.07 -385.231)" fill="#6eacce"/>
              <g id="Group_278" data-name="Group 278" transform="translate(26.054)">
                <path id="Path_171" data-name="Path 171" d="M392.576,394.295H444.9a3.235,3.235,0,0,0,3.178-2.632l7.053-30.263a3.235,3.235,0,0,0-3.179-3.84H399.63a3.236,3.236,0,0,0-3.18,2.632L389.4,390.454A3.236,3.236,0,0,0,392.576,394.295Z" transform="translate(-389.34 -357.56)" fill="#e0eef7"/>
                <path id="Path_172" data-name="Path 172" d="M396.45,360.666a1.754,1.754,0,1,1,2.581,1.207l-7.051,30.263a1.754,1.754,0,1,1-2.582-1.208Z" transform="translate(-389.34 -358.034)" fill="#6eacce"/>
                <path id="Path_173" data-name="Path 173" d="M451.278,392.089H442.7a3.188,3.188,0,0,1-3.188-3.188h0a3.188,3.188,0,0,1,3.188-3.187h8.581a3.188,3.188,0,0,1,3.188,3.187h0A3.188,3.188,0,0,1,451.278,392.089Z" transform="translate(-411.259 -369.861)" fill="#fff"/>
              </g>
            </g>
            <g id="Group_280" data-name="Group 280" transform="translate(6.149 34.839)">
              <path id="Path_174" data-name="Path 174" d="M357.484,421.27h-2.575a.919.919,0,0,1-.919-.92h0a.919.919,0,0,1,.919-.919h2.575a.919.919,0,0,1,.92.919h0A.919.919,0,0,1,357.484,421.27Z" transform="translate(-353.99 -419.431)" fill="#6eacce"/>
              <path id="Path_175" data-name="Path 175" d="M366.41,421.27h-2.574a.919.919,0,0,1-.92-.92h0a.919.919,0,0,1,.92-.919h2.574a.919.919,0,0,1,.92.919h0A.919.919,0,0,1,366.41,421.27Z" transform="translate(-357.89 -419.431)" fill="#6eacce"/>
              <path id="Path_176" data-name="Path 176" d="M375.336,421.27h-2.574a.919.919,0,0,1-.92-.92h0a.919.919,0,0,1,.92-.919h2.574a.919.919,0,0,1,.919.919h0A.919.919,0,0,1,375.336,421.27Z" transform="translate(-361.79 -419.431)" fill="#6eacce"/>
              <path id="Path_177" data-name="Path 177" d="M384.262,421.27h-2.574a.919.919,0,0,1-.92-.92h0a.919.919,0,0,1,.92-.919h2.574a.919.919,0,0,1,.919.919h0A.919.919,0,0,1,384.262,421.27Z" transform="translate(-365.689 -419.431)" fill="#6eacce"/>
            </g>
          </g>
        </g>
        <path id="Path_178" data-name="Path 178" d="M384.746,431.491H164.576a2.206,2.206,0,0,1-2.207-2.206h0a2.207,2.207,0,0,1,2.207-2.207H384.746a2.207,2.207,0,0,1,2.206,2.207h0A2.206,2.206,0,0,1,384.746,431.491Z" transform="translate(-122.7 -220.153)" fill="#1b2a67"/>
        <g id="Group_289" data-name="Group 289" transform="translate(62.126 169.59)">
          <g id="Group_287" data-name="Group 287">
            <path id="Path_179" data-name="Path 179" d="M221.282,391.216s-1.621-12.175-4.554-15.168" transform="translate(-208.575 -367.447)" fill="none" stroke="#1b2a67" stroke-linecap="round" stroke-miterlimit="10" stroke-width="0.827"/>
            <g id="Group_285" data-name="Group 285" transform="translate(1.976)">
              <path id="Path_180" data-name="Path 180" d="M214.73,362.131c.784,2.595.623,4.938-.358,5.235s-2.412-1.566-3.2-4.161c-.008-.026-.016-.052-.023-.078a1.857,1.857,0,0,1,3.553-1.073C214.714,362.079,214.722,362.1,214.73,362.131Z" transform="translate(-208.079 -360.774)" fill="#ffd2d4"/>
              <g id="Group_283" data-name="Group 283" transform="translate(0 3.494)">
                <path id="Path_181" data-name="Path 181" d="M221.752,370.64c-2.595.784-4.938.623-5.235-.358s1.567-2.412,4.161-3.2l.078-.023a1.857,1.857,0,0,1,1.074,3.553Z" transform="translate(-210.445 -366.979)" fill="#ffd2d4"/>
                <path id="Path_182" data-name="Path 182" d="M208.189,375.1c2.594-.784,4.457-2.215,4.161-3.2s-2.64-1.142-5.235-.358l-.077.024a1.857,1.857,0,0,0,1.073,3.553Z" transform="translate(-205.759 -368.757)" fill="#ffd2d4"/>
              </g>
              <g id="Group_284" data-name="Group 284" transform="translate(3.129 7.123)">
                <path id="Path_183" data-name="Path 183" d="M214.984,379.405c.729-2.611.52-4.95-.467-5.226s-2.379,1.616-3.109,4.227c-.007.026-.014.052-.021.078a1.856,1.856,0,0,0,3.575,1C214.969,379.457,214.977,379.431,214.984,379.405Z" transform="translate(-211.315 -373.742)" fill="#ffd2d4"/>
                <path id="Path_184" data-name="Path 184" d="M220.185,378.33c-2.053-1.77-3.174-3.834-2.5-4.611s2.876.029,4.929,1.8l.061.053a1.857,1.857,0,0,1-2.424,2.811Z" transform="translate(-214.011 -373.424)" fill="#ffd2d4"/>
              </g>
              <path id="Path_185" data-name="Path 185" d="M217.179,372.384a1.269,1.269,0,1,1-1.582-.848A1.269,1.269,0,0,1,217.179,372.384Z" transform="translate(-209.663 -365.452)" fill="#d15e79"/>
            </g>
            <g id="Group_286" data-name="Group 286" transform="translate(0 11.475)">
              <path id="Path_186" data-name="Path 186" d="M210.172,387.145c3.371,2.656,5.289,5.842,4.284,7.118s-4.551.156-7.922-2.5a13.528,13.528,0,0,1-4.285-7.118A13.535,13.535,0,0,1,210.172,387.145Z" transform="translate(-202.249 -382.677)" fill="#06abc5"/>
              <path id="Path_187" data-name="Path 187" d="M230.262,389.639c-3.558,3.342-7.467,4.96-8.731,3.613s.6-5.146,4.154-8.488a15.393,15.393,0,0,1,8.731-3.613A15.39,15.39,0,0,1,230.262,389.639Z" transform="translate(-210.5 -381.152)" fill="#06abc5"/>
            </g>
          </g>
          <g id="Group_288" data-name="Group 288" transform="translate(2.029 21.734)">
            <path id="Path_188" data-name="Path 188" d="M222.084,417.02H210.441L208.4,402.373h15.718Z" transform="translate(-206.967 -400.683)" fill="#1b2a67"/>
            <rect id="Rectangle_60" data-name="Rectangle 60" width="18.59" height="5.446" rx="1.469" fill="#1b2a67"/>
          </g>
        </g>
        <g id="Group_316" data-name="Group 316" transform="translate(0 18.466)">
          <g id="Group_293" data-name="Group 293" transform="translate(0 11.077)">
            <g id="Group_290" data-name="Group 290" transform="translate(97.197 33.555)">
              <path id="Path_189" data-name="Path 189" d="M285.44,198.5l5.774,6.192,44.007-18.355Z" transform="translate(-273.667 -178.07)" fill="#06abc5"/>
              <path id="Path_190" data-name="Path 190" d="M278.358,171.655l-4.346,6.557,2.939,6.426-6.592,1.121-5.826,12.79L327.5,179.5Z" transform="translate(-264.533 -171.655)" fill="#06abc5" opacity="0.49"/>
              <path id="Path_191" data-name="Path 191" d="M284.306,189.726l-2.939-6.426,34.105,1.595Z" transform="translate(-271.888 -176.743)" fill="#06abc5"/>
            </g>
            <g id="Group_291" data-name="Group 291" transform="translate(49.84 56.635)">
              <path id="Path_192" data-name="Path 192" d="M236.892,266.1q-.726,0-1.454-.009a.881.881,0,0,1-.872-.892.863.863,0,0,1,.893-.872c2.285.026,4.554-.01,7.043-.115h.038a.882.882,0,0,1,.037,1.764C240.582,266.055,238.722,266.1,236.892,266.1Zm-8.526-.348a.711.711,0,0,1-.078,0c-2.43-.208-4.822-.52-7.108-.926a.882.882,0,0,1-.714-1.024.9.9,0,0,1,1.024-.714c2.232.4,4.571.7,6.95.906a.882.882,0,0,1-.075,1.761ZM214.438,263.2a.852.852,0,0,1-.259-.04,51.035,51.035,0,0,1-6.727-2.586.882.882,0,1,1,.75-1.6,49.587,49.587,0,0,0,6.495,2.5.883.883,0,0,1-.258,1.727Zm-12.783-6.021a.879.879,0,0,1-.489-.148,46.8,46.8,0,0,1-5.679-4.461.882.882,0,1,1,1.2-1.3,45.078,45.078,0,0,0,5.463,4.291.882.882,0,0,1-.491,1.617Zm-10.4-9.558a.885.885,0,0,1-.691-.332,47.089,47.089,0,0,1-4.051-5.981.883.883,0,1,1,1.534-.873,45.251,45.251,0,0,0,3.9,5.753.882.882,0,0,1-.691,1.433Zm-6.991-12.277a.884.884,0,0,1-.826-.572,43.321,43.321,0,0,1-1.984-6.956.883.883,0,0,1,1.733-.34,41.537,41.537,0,0,0,1.9,6.672.884.884,0,0,1-.826,1.2ZM181.448,221.5a.883.883,0,0,1-.88-.826c-.092-1.442-.137-2.961-.137-4.511V215.8q0-1.15.041-2.306a.882.882,0,0,1,.882-.853h.029a.882.882,0,0,1,.853.911q-.036,1.129-.042,2.251v.355c0,1.514.046,2.994.135,4.4a.881.881,0,0,1-.824.937Z" transform="translate(-180.431 -212.643)" fill="#06abc5"/>
            </g>
            <g id="Group_292" data-name="Group 292">
              <path id="Path_193" data-name="Path 193" d="M150.2,163.558q-2.021,0-3.978-.049a.882.882,0,0,1,.023-1.764h.023q3.417.086,7.051.019a.835.835,0,0,1,.9.865.88.88,0,0,1-.865.9Q151.755,163.558,150.2,163.558Zm10.222-.3a.882.882,0,0,1-.047-1.762c2.282-.13,4.653-.3,7.046-.511a.882.882,0,1,1,.155,1.758c-2.412.213-4.8.387-7.1.515Zm-21.257-.112h-.07c-2.457-.191-4.847-.453-7.106-.776a.882.882,0,0,1-.748-1,.9.9,0,0,1,1-.748c2.221.318,4.574.574,6.994.761a.883.883,0,0,1-.068,1.762Zm35.386-1.127a.882.882,0,0,1-.1-1.759q3.439-.4,7.011-.911a.883.883,0,0,1,.25,1.747q-3.6.513-7.057.916A.8.8,0,0,1,174.549,162.023Zm-49.414-.905a.913.913,0,0,1-.194-.021c-1.706-.383-3.37-.814-4.943-1.283q-1-.3-1.975-.622a.882.882,0,0,1,.554-1.675q.946.312,1.924.6c1.536.457,3.159.878,4.825,1.252a.883.883,0,0,1-.191,1.745Zm-13.406-4.533a.878.878,0,0,1-.385-.09,42.936,42.936,0,0,1-6.231-3.672.883.883,0,1,1,1.026-1.436,41.316,41.316,0,0,0,5.974,3.52.883.883,0,0,1-.385,1.678Zm30.384-.789a.883.883,0,0,1-.882-.882V154.6c0-2.225-.089-4.486-.266-6.722a.883.883,0,0,1,1.761-.138c.178,2.28.269,4.589.269,6.86v.313A.883.883,0,0,1,142.112,155.795Zm-41.8-7.485a.881.881,0,0,1-.652-.287,30.713,30.713,0,0,1-4.242-5.918.883.883,0,1,1,1.549-.85,28.907,28.907,0,0,0,4,5.578.882.882,0,0,1-.652,1.477Zm40.659-6.669a.883.883,0,0,1-.869-.733,60.124,60.124,0,0,0-1.559-6.821.882.882,0,1,1,1.692-.5,62,62,0,0,1,1.608,7.019.885.885,0,0,1-.721,1.02A.916.916,0,0,1,140.976,141.642ZM93.549,136a.882.882,0,0,1-.85-.648q-.164-.595-.307-1.2a17.091,17.091,0,0,1-.471-3.912,15.038,15.038,0,0,1,.169-2.264.882.882,0,0,1,1.744.264,13.379,13.379,0,0,0-.149,2,15.326,15.326,0,0,0,.425,3.506c.091.382.187.761.291,1.135a.881.881,0,0,1-.615,1.086A.905.905,0,0,1,93.549,136Zm43.335-7.915a.884.884,0,0,1-.8-.5,29.9,29.9,0,0,0-3.622-5.842.883.883,0,0,1,1.377-1.106,31.813,31.813,0,0,1,3.837,6.183.885.885,0,0,1-.8,1.266ZM95.74,122.555a.873.873,0,0,1-.534-.18.883.883,0,0,1-.168-1.237,20,20,0,0,1,5.527-4.883.883.883,0,1,1,.922,1.506,18.241,18.241,0,0,0-5.044,4.446A.88.88,0,0,1,95.74,122.555Zm32.217-5.248a.877.877,0,0,1-.483-.144,19.943,19.943,0,0,0-6.186-2.678.883.883,0,0,1,.422-1.715,21.738,21.738,0,0,1,6.732,2.916.882.882,0,0,1-.485,1.62Zm-20.448-2.25a.883.883,0,0,1-.25-1.73,33.309,33.309,0,0,1,6.938-1.254l.266-.008a.94.94,0,0,1,.9.865.881.881,0,0,1-.865.9l-.192.007a31.416,31.416,0,0,0-6.547,1.184A.9.9,0,0,1,107.509,115.057Z" transform="translate(-91.92 -112.065)" fill="#06abc5"/>
            </g>
          </g>
          <g id="Group_303" data-name="Group 303" transform="translate(177.96 20.079)">
            <g id="Group_300" data-name="Group 300" transform="translate(39.32)">
              <path id="Path_194" data-name="Path 194" d="M488.467,128.051h47.178a10.678,10.678,0,0,1,10.678,10.679v24.334a10.678,10.678,0,0,1-10.678,10.678H504.794l-11.1,9.791v-9.791h-5.231a10.678,10.678,0,0,1-10.679-10.678V138.73A10.679,10.679,0,0,1,488.467,128.051Z" transform="translate(-477.788 -128.051)" fill="#06abc5"/>
              <g id="Group_299" data-name="Group 299" transform="translate(16.204 12.382)">
                <g id="Group_294" data-name="Group 294">
                  <path id="Path_195" data-name="Path 195" d="M507.9,152.719h33.452a1.339,1.339,0,0,0,0-2.678H507.9a1.339,1.339,0,0,0,0,2.678Z" transform="translate(-506.564 -150.041)" fill="#fff"/>
                </g>
                <g id="Group_295" data-name="Group 295" transform="translate(0 8.921)">
                  <path id="Path_196" data-name="Path 196" d="M507.9,168.56h33.452a1.338,1.338,0,0,0,0-2.677H507.9a1.338,1.338,0,0,0,0,2.677Z" transform="translate(-506.564 -165.883)" fill="#fff"/>
                </g>
                <g id="Group_296" data-name="Group 296" transform="translate(28.546 17.841)">
                  <path id="Path_197" data-name="Path 197" d="M558.6,184.4H563.5a1.339,1.339,0,0,0,0-2.678H558.6a1.339,1.339,0,0,0,0,2.678Z" transform="translate(-557.258 -181.724)" fill="#fff"/>
                </g>
                <g id="Group_297" data-name="Group 297" transform="translate(17.395 17.841)">
                  <path id="Path_198" data-name="Path 198" d="M538.794,184.4H543.7a1.339,1.339,0,0,0,0-2.678h-4.906a1.339,1.339,0,0,0,0,2.678Z" transform="translate(-537.456 -181.724)" fill="#fff"/>
                </g>
                <g id="Group_298" data-name="Group 298" transform="translate(0 17.841)">
                  <path id="Path_199" data-name="Path 199" d="M507.9,184.4h11.151a1.339,1.339,0,0,0,0-2.678H507.9a1.339,1.339,0,0,0,0,2.678Z" transform="translate(-506.564 -181.724)" fill="#fff"/>
                </g>
              </g>
            </g>
            <g id="Group_302" data-name="Group 302" transform="translate(0 48.595)">
              <path id="Path_200" data-name="Path 200" d="M451.99,214.35H415.877a6.431,6.431,0,0,0-6.431,6.431v20.825a6.426,6.426,0,0,0,5.96,6.407l-7.447,12.2,19.626-12.179H451.99a6.431,6.431,0,0,0,6.431-6.431V220.781A6.431,6.431,0,0,0,451.99,214.35Z" transform="translate(-407.959 -214.35)" fill="#06abc5" opacity="0.26"/>
              <g id="Group_301" data-name="Group 301" transform="translate(15.869 5.743)">
                <circle id="Ellipse_18" data-name="Ellipse 18" cx="4.276" cy="4.276" r="4.276" transform="translate(4.059 6.047) rotate(-45)" fill="#06abc5"/>
                <path id="Path_201" data-name="Path 201" d="M456.352,255.8H436.14a6.477,6.477,0,0,1,6.478-6.478h7.255a6.478,6.478,0,0,1,6.478,6.478Z" transform="translate(-436.14 -235.374)" fill="#06abc5"/>
              </g>
            </g>
          </g>
          <g id="Group_315" data-name="Group 315" transform="translate(160.961)">
            <g id="Group_306" data-name="Group 306">
              <g id="Group_304" data-name="Group 304">
                <path id="Path_202" data-name="Path 202" d="M395.208,127.2a17.689,17.689,0,0,1-3.558-.362.884.884,0,0,1-.687-1.043.9.9,0,0,1,1.043-.687,15.973,15.973,0,0,0,5.541.154.883.883,0,0,1,.261,1.747A17.815,17.815,0,0,1,395.208,127.2Zm8.012-2.061a.884.884,0,0,1-.429-1.657,15.67,15.67,0,0,0,4.3-3.5.882.882,0,1,1,1.336,1.153,17.489,17.489,0,0,1-4.78,3.89A.884.884,0,0,1,403.22,125.137Zm-16.822-.474a.874.874,0,0,1-.468-.135,17.5,17.5,0,0,1-4.557-4.149.883.883,0,0,1,1.4-1.077,15.759,15.759,0,0,0,4.1,3.732.882.882,0,0,1-.471,1.629Zm24.338-8.259a.885.885,0,0,1-.827-1.191,15.615,15.615,0,0,0,.975-5.454.882.882,0,0,1,1.764,0,17.368,17.368,0,0,1-1.085,6.068A.885.885,0,0,1,410.735,116.4Zm-31.351-.876a.883.883,0,0,1-.844-.624,17.476,17.476,0,0,1-.771-5.143c0-.329.008-.654.027-.977a.9.9,0,0,1,.931-.831.882.882,0,0,1,.831.931c-.016.288-.024.582-.024.874a15.752,15.752,0,0,0,.694,4.625.883.883,0,0,1-.583,1.1A.853.853,0,0,1,379.384,115.528Zm31.9-8.878a.883.883,0,0,1-.856-.671,15.543,15.543,0,0,0-2.266-5.054.882.882,0,1,1,1.456-1,17.277,17.277,0,0,1,2.523,5.625.88.88,0,0,1-.644,1.069A.849.849,0,0,1,411.28,106.65Zm-31.252-2.626a.885.885,0,0,1-.809-1.237,17.316,17.316,0,0,1,3.428-5.123.882.882,0,1,1,1.27,1.224,15.609,15.609,0,0,0-3.08,4.606A.882.882,0,0,1,380.028,104.023Zm24.752-6.891a.873.873,0,0,1-.51-.163,15.53,15.53,0,0,0-5.01-2.355.883.883,0,1,1,.454-1.707,17.289,17.289,0,0,1,5.58,2.623.882.882,0,0,1-.513,1.6Zm-16.762-1.407a.883.883,0,0,1-.383-1.678,17.31,17.31,0,0,1,5.939-1.65.893.893,0,0,1,.961.8.884.884,0,0,1-.8.961,15.582,15.582,0,0,0-5.336,1.481A.871.871,0,0,1,388.018,95.726Z" transform="translate(-377.77 -92.393)" fill="#06abc5"/>
              </g>
              <g id="Group_305" data-name="Group 305" transform="translate(5.869 8.983)">
                <path id="Path_203" data-name="Path 203" d="M399.762,108.347c-6.39,0-11.569,3.424-11.569,7.649v.022c0,1.1.874,1.859,1.688,1.511l3.037-1.3a1.824,1.824,0,0,0,.757-2.272l-.373-1.019a45.827,45.827,0,0,0,12.879,0l-.377,1.307a1.842,1.842,0,0,0,.7,2.1l3,1.64c.73.4,1.583-.137,1.751-1.134a5.125,5.125,0,0,0,.072-.854C411.332,111.771,406.152,108.347,399.762,108.347Z" transform="translate(-388.193 -108.347)" fill="#06abc5"/>
                <path id="Path_204" data-name="Path 204" d="M410.529,130.528H394.493l2.376-7.445a3.367,3.367,0,0,1,3.207-2.343h4.868a3.368,3.368,0,0,1,3.208,2.343Z" transform="translate(-390.945 -113.762)" fill="#06abc5" opacity="0.39"/>
              </g>
            </g>
            <g id="Group_314" data-name="Group 314" transform="translate(103.351 90.684)">
              <g id="Group_307" data-name="Group 307">
                <path id="Path_205" data-name="Path 205" d="M578.752,288.244a17.553,17.553,0,0,1-3.563-.364.885.885,0,0,1-.686-1.044.894.894,0,0,1,1.044-.685,15.869,15.869,0,0,0,5.54.154.883.883,0,1,1,.261,1.747A17.952,17.952,0,0,1,578.752,288.244Zm8.01-2.06a.883.883,0,0,1-.43-1.655,15.715,15.715,0,0,0,4.3-3.5.882.882,0,0,1,1.336,1.152,17.464,17.464,0,0,1-4.78,3.889A.869.869,0,0,1,586.762,286.183Zm-16.821-.475a.878.878,0,0,1-.469-.135,17.5,17.5,0,0,1-4.555-4.149.883.883,0,0,1,1.4-1.077,15.718,15.718,0,0,0,4.1,3.732.882.882,0,0,1-.471,1.629Zm24.336-8.258a.9.9,0,0,1-.307-.056.884.884,0,0,1-.52-1.135,15.614,15.614,0,0,0,.976-5.453.882.882,0,1,1,1.764,0,17.361,17.361,0,0,1-1.085,6.068A.882.882,0,0,1,594.277,277.45Zm-31.352-.879a.883.883,0,0,1-.843-.623,17.444,17.444,0,0,1-.77-5.142c0-.328.009-.652.028-.976a.925.925,0,0,1,.93-.832.883.883,0,0,1,.832.93c-.016.292-.025.584-.025.878a15.664,15.664,0,0,0,.693,4.621.883.883,0,0,1-.583,1.1A.87.87,0,0,1,562.924,276.571Zm31.9-8.875a.883.883,0,0,1-.857-.671,15.583,15.583,0,0,0-2.266-5.053.882.882,0,1,1,1.457-1,17.276,17.276,0,0,1,2.522,5.624.881.881,0,0,1-.644,1.069A.848.848,0,0,1,594.824,267.7Zm-31.253-2.627a.884.884,0,0,1-.809-1.237,17.393,17.393,0,0,1,3.429-5.123.882.882,0,1,1,1.27,1.224,15.653,15.653,0,0,0-3.081,4.606A.884.884,0,0,1,563.571,265.068Zm24.754-6.887a.873.873,0,0,1-.51-.163,15.5,15.5,0,0,0-5.01-2.357.883.883,0,1,1,.454-1.707,17.32,17.32,0,0,1,5.58,2.625.882.882,0,0,1-.513,1.6Zm-16.762-1.412a.883.883,0,0,1-.383-1.678,17.308,17.308,0,0,1,5.94-1.649.883.883,0,0,1,.164,1.759,15.536,15.536,0,0,0-5.337,1.479A.864.864,0,0,1,571.563,256.769Z" transform="translate(-561.311 -253.438)" fill="#06abc5"/>
              </g>
              <g id="Group_313" data-name="Group 313" transform="translate(7.038 9.954)">
                <rect id="Rectangle_61" data-name="Rectangle 61" width="20.525" height="11.639" transform="translate(0 4.273)" fill="#06abc5" opacity="0.14"/>
                <g id="Group_312" data-name="Group 312" transform="translate(3.755)">
                  <g id="Group_308" data-name="Group 308">
                    <path id="Path_206" data-name="Path 206" d="M605.264,274.487v-1.424a1.9,1.9,0,0,1,1.9-1.9h0a1.9,1.9,0,0,1,1.9,1.9v2.362h-3.8" transform="translate(-591.308 -271.137)" fill="#06abc5"/>
                    <path id="Path_207" data-name="Path 207" d="M594.472,273.015v12.1H580.479v-12.1a1.9,1.9,0,0,1,1.9-1.9h13.836l-.385.08A1.9,1.9,0,0,0,594.472,273.015Z" transform="translate(-580.479 -271.116)" fill="#e0eef7"/>
                  </g>
                  <g id="Group_311" data-name="Group 311" transform="translate(0.87 1.952)">
                    <rect id="Rectangle_62" data-name="Rectangle 62" width="3.103" height="3.185" transform="translate(0 0.018)" fill="#06abc5"/>
                    <g id="Group_310" data-name="Group 310">
                      <g id="Group_309" data-name="Group 309" transform="translate(4.054)">
                        <line id="Line_15" data-name="Line 15" x2="7.888" fill="none" stroke="#06abc5" stroke-linecap="round" stroke-linejoin="round" stroke-width="0.658"/>
                        <line id="Line_16" data-name="Line 16" x2="7.888" transform="translate(0 1.073)" fill="none" stroke="#06abc5" stroke-linecap="round" stroke-linejoin="round" stroke-width="0.658"/>
                        <line id="Line_17" data-name="Line 17" x2="7.888" transform="translate(0 2.145)" fill="none" stroke="#06abc5" stroke-linecap="round" stroke-linejoin="round" stroke-width="0.658"/>
                        <line id="Line_18" data-name="Line 18" x2="7.888" transform="translate(0.074 3.218)" fill="none" stroke="#06abc5" stroke-linecap="round" stroke-linejoin="round" stroke-width="0.658"/>
                      </g>
                      <line id="Line_19" data-name="Line 19" x2="11.942" transform="translate(0 4.276)" fill="none" stroke="#06abc5" stroke-linecap="round" stroke-linejoin="round" stroke-width="0.658"/>
                      <line id="Line_20" data-name="Line 20" x2="11.942" transform="translate(0 5.349)" fill="none" stroke="#06abc5" stroke-linecap="round" stroke-linejoin="round" stroke-width="0.658"/>
                      <line id="Line_21" data-name="Line 21" x2="11.942" transform="translate(0 6.398)" fill="none" stroke="#06abc5" stroke-linecap="round" stroke-linejoin="round" stroke-width="0.658"/>
                      <line id="Line_22" data-name="Line 22" x2="5.804" transform="translate(0 7.471)" fill="none" stroke="#06abc5" stroke-linecap="round" stroke-linejoin="round" stroke-width="0.658"/>
                    </g>
                  </g>
                </g>
                <path id="Path_208" data-name="Path 208" d="M589.294,290.343H573.811V278.7Z" transform="translate(-573.811 -274.431)" fill="#2b3768"/>
                <path id="Path_209" data-name="Path 209" d="M582.765,290.343h15.483V278.7Z" transform="translate(-577.723 -274.431)" fill="#2b3768"/>
                <path id="Path_210" data-name="Path 210" d="M594.336,295.3H573.811l9.218-4.923a1.834,1.834,0,0,1,2.089,0Z" transform="translate(-573.811 -279.389)" fill="#06abc5"/>
              </g>
            </g>
          </g>
        </g>
      </g>
    </g>
  </g>
</svg>
