<svg xmlns="http://www.w3.org/2000/svg" width="31.501" height="29.25" viewBox="0 0 31.501 29.25">
  <g id="Icon_ionic-md-pricetags" data-name="Icon ionic-md-pricetags" transform="translate(-2.249 -3.375)">
    <path id="Path_49" data-name="Path 49" d="M31.078,7.523v9.914L16.116,31.76a3.2,3.2,0,0,0,2.025.865,3.5,3.5,0,0,0,2.208-.865l13.4-12.635v-9Z" fill="#fff"/>
    <path id="Path_50" data-name="Path 50" d="M27,3.375H15.75L3.115,16.566a2.878,2.878,0,0,0-.865,2,3.075,3.075,0,0,0,.865,2.243l8.7,8.691a3.228,3.228,0,0,0,2.025.879,3.509,3.509,0,0,0,2.2-.879l13.2-12.621V5.625ZM24.841,10.6a2.252,2.252,0,1,1,1.5-1.5A2.189,2.189,0,0,1,24.841,10.6Z" fill="#fff"/>
  </g>
</svg>
