<svg xmlns="http://www.w3.org/2000/svg" width="24" height="23" viewBox="0 0 24 23">
  <g id="Group_48" data-name="Group 48" transform="translate(0.271)">
    <g id="Polygon_2" data-name="Polygon 2" transform="translate(-0.271)" fill="#09f">
      <path d="M 14.44081878662109 21.67428016662598 C 14.08879947662354 21.6742992401123 13.74543857574463 21.60272979736328 13.42026901245117 21.46154975891113 C 12.96938896179199 21.26579093933105 12.49153900146484 21.16653060913086 11.99999904632568 21.16653060913086 C 11.50845909118652 21.16653060913086 11.03060913085938 21.26579093933105 10.5797290802002 21.46154975891113 C 10.25462913513184 21.60269927978516 9.911249160766602 21.67427062988281 9.559139251708984 21.67428016662598 C 8.653698921203613 21.67428970336914 7.80587911605835 21.18984985351563 7.346549034118652 20.41002082824707 L 7.333889007568359 20.38853073120117 C 6.837079048156738 19.54505920410156 6.004709243774414 18.9371395111084 5.050158977508545 18.72055053710938 L 5.024249076843262 18.71467018127441 C 3.773239135742188 18.43082046508789 2.918789148330688 17.25361061096191 3.036608934402466 15.97634029388428 L 3.042758941650391 15.90952968597412 C 3.131899118423462 14.94316959381104 2.817158937454224 13.96940994262695 2.179249048233032 13.23797988891602 L 2.134568929672241 13.18675994873047 C 1.295899033546448 12.2251501083374 1.295899033546448 10.7748498916626 2.134568929672241 9.813240051269531 L 2.179249048233032 9.762009620666504 C 2.817158937454224 9.030599594116211 3.131899118423462 8.056839942932129 3.042768955230713 7.090419769287109 L 3.036599159240723 7.023640155792236 C 2.918799161911011 5.746389865875244 3.77324914932251 4.569180011749268 5.024138927459717 4.285359859466553 L 5.050309181213379 4.279409885406494 C 6.004709243774414 4.062860012054443 6.837079048156738 3.4549400806427 7.33384895324707 2.611550092697144 L 7.346518993377686 2.590049982070923 C 7.805889129638672 1.810160040855408 8.653698921203613 1.325729966163635 9.559148788452148 1.325729966163635 C 9.911249160766602 1.325729966163635 10.25461864471436 1.397300004959106 10.57973861694336 1.53846001625061 C 11.03061866760254 1.734210014343262 11.50846862792969 1.833469986915588 11.99999904632568 1.833469986915588 C 12.49154949188232 1.833469986915588 12.96939945220947 1.734210014343262 13.42027950286865 1.538450002670288 C 13.74538898468018 1.397300004959106 14.08876895904541 1.325729966163635 14.44085884094238 1.325729966163635 C 15.34630870819092 1.325729966163635 16.19411849975586 1.810160040855408 16.6534481048584 2.589989900588989 L 16.66615867614746 2.611560106277466 C 17.16290855407715 3.4549400806427 17.99528884887695 4.062870025634766 18.94983863830566 4.279459953308105 L 18.97592926025391 4.285369873046875 C 20.22675895690918 4.56919002532959 21.08120918273926 5.746409893035889 20.96339988708496 7.023680210113525 L 20.95724868774414 7.090390205383301 C 20.86809921264648 8.056830406188965 21.18283843994141 9.030590057373047 21.82074928283691 9.762009620666504 L 21.86542892456055 9.813240051269531 C 22.70410919189453 10.7748498916626 22.70410919189453 12.2251501083374 21.86542892456055 13.1867504119873 L 21.82074928283691 13.2379903793335 C 21.18283843994141 13.96942043304443 20.86809921264648 14.94318008422852 20.95723915100098 15.90958976745605 L 20.96338844299316 15.97628021240234 C 21.08120918273926 17.25361061096191 20.22675895690918 18.43082046508789 18.97585868835449 18.71463966369629 L 18.94972991943359 18.72057914733887 C 17.99528884887695 18.9371395111084 17.16291999816895 19.54505920410156 16.6661491394043 20.38845062255859 L 16.65340995788574 20.41010093688965 C 16.19415855407715 21.18976974487305 15.34632873535156 21.67420959472656 14.44081878662109 21.67428016662598 Z" stroke="none"/>
      <path d="M 9.559219360351563 1.825719833374023 L 9.559228897094727 1.825719833374023 C 8.82996940612793 1.825780868530273 8.147209167480469 2.215860366821289 7.777288436889648 2.843889236450195 L 7.764669418334961 2.865310668945313 C 7.198249816894531 3.826950073242188 6.249168395996094 4.520099639892578 5.160739898681641 4.767059326171875 L 5.134788513183594 4.77294921875 C 4.127609252929688 5.001480102539063 3.439638137817383 5.949329376220703 3.53449821472168 6.977840423583984 L 3.540639877319336 7.044489860534668 C 3.642288208007813 8.146400451660156 3.283418655395508 9.25669002532959 2.556068420410156 10.09066009521484 L 2.511379241943359 10.14188957214355 C 1.836109161376953 10.91613960266113 1.836109161376953 12.08386039733887 2.511388778686523 12.85811042785645 L 2.556058883666992 12.90933036804199 C 3.283418655395508 13.74328994750977 3.642288208007813 14.85358047485352 3.5406494140625 15.95541000366211 L 3.534488677978516 16.02226066589355 C 3.439628601074219 17.0506706237793 4.127599716186523 17.99851989746094 5.134988784790039 18.22708892822266 L 5.160789489746094 18.23295021057129 C 6.249179840087891 18.47990036010742 7.198249816894531 19.17305946350098 7.764759063720703 20.13484001159668 L 7.777368545532227 20.15625953674316 C 8.147229194641113 20.78418922424316 8.82996940612793 21.17427062988281 9.559139251708984 21.17427062988281 C 9.842329025268555 21.17427062988281 10.11870861053467 21.11661911010742 10.38058948516846 21.00292015075684 C 10.89467906951904 20.77971076965332 11.43951892852783 20.66653060913086 11.99999904632568 20.66653060913086 C 12.56045913696289 20.66653060913086 13.10530948638916 20.77971076965332 13.61938858032227 21.00291061401367 C 13.88129901885986 21.11661911010742 14.15766906738281 21.17428016662598 14.44084930419922 21.17428016662598 C 15.17002868652344 21.17428016662598 15.85275936126709 20.78420066833496 16.22253799438477 20.15641021728516 L 16.23532867431641 20.13468933105469 C 16.80175018310547 19.17305946350098 17.75082015991211 18.47990036010742 18.8389892578125 18.23299980163574 L 18.8652286529541 18.2270393371582 C 19.87239837646484 17.99851989746094 20.56036949157715 17.0506706237793 20.46549987792969 16.02215957641602 L 20.45935821533203 15.95551013946533 C 20.35771942138672 14.85359954833984 20.71657943725586 13.74330997467041 21.44392967224121 12.90933990478516 L 21.48860931396484 12.85811042785645 C 22.16387939453125 12.08386039733887 22.16387939453125 10.91613960266113 21.48860931396484 10.14188957214355 L 21.44393920898438 10.09066963195801 C 20.71657943725586 9.256710052490234 20.35770797729492 8.146419525146484 20.45935821533203 7.044429779052734 L 20.46551895141602 6.977750778198242 C 20.56036949157715 5.9493408203125 19.87239837646484 5.001489639282227 18.86535835266113 4.772989273071289 L 18.83920860290527 4.767059326171875 C 17.75082015991211 4.520109176635742 16.80173873901367 3.826950073242188 16.2353401184082 2.865329742431641 L 16.22262954711914 2.84375 C 15.85275936126709 2.215799331665039 15.17002868652344 1.825719833374023 14.44085884094238 1.825729370117188 C 14.15766906738281 1.825729370117188 13.8812894821167 1.883380889892578 13.61938858032227 1.997089385986328 C 13.10527896881104 2.220300674438477 12.56043910980225 2.333469390869141 12.00000858306885 2.333469390869141 C 11.43955898284912 2.333469390869141 10.89471912384033 2.22028923034668 10.38061904907227 1.997089385986328 C 10.1186695098877 1.883359909057617 9.84230899810791 1.825700759887695 9.559219360351563 1.825719833374023 M 9.559148788452148 0.8257198333740234 C 9.96819019317627 0.8256893157958984 10.38263702392578 0.9077777862548828 10.77886867523193 1.079809188842773 C 11.16835403442383 1.24891471862793 11.5841817855835 1.333467483520508 12.00000858306885 1.333467483520508 C 12.41583633422852 1.333467483520508 12.83166408538818 1.24891471862793 13.22114944458008 1.079809188842773 L 13.2211389541626 1.07982063293457 C 13.61728477478027 0.9078235626220703 14.031907081604 0.8257312774658203 14.44086170196533 0.8257255554199219 C 15.49805927276611 0.8257083892822266 16.51765251159668 1.374252319335938 17.08426856994629 2.33622932434082 L 17.09696960449219 2.357789993286133 C 17.52587890625 3.085979461669922 18.23631858825684 3.604850769042969 19.06047821044922 3.791849136352539 L 19.08649826049805 3.797750473022461 C 20.58679962158203 4.13817024230957 21.60258865356445 5.537649154663086 21.46128845214844 7.069600105285645 L 21.45512962341309 7.136340141296387 C 21.37810897827148 7.971329689025879 21.64640808105469 8.801429748535156 22.19756889343262 9.433369636535645 L 22.24224853515625 9.484600067138672 C 23.24944877624512 10.63943958282471 23.24944877624512 12.36056041717529 22.24224853515625 13.51539993286133 L 22.19756889343262 13.56663036346436 C 21.64640808105469 14.19857978820801 21.37810897827148 15.0286693572998 21.45512962341309 15.86365985870361 L 21.46127891540527 15.93041038513184 C 21.60258865356445 17.46234893798828 20.58679962158203 18.86183929443359 19.08649826049805 19.20224952697754 L 19.06047821044922 19.20816040039063 C 18.23631858825684 19.39516067504883 17.52587890625 19.91403007507324 17.09696960449219 20.64221000671387 L 17.08426856994629 20.66378021240234 C 16.5177001953125 21.62566947937012 15.49795436859131 22.17427825927734 14.44085311889648 22.17427825927734 C 14.03181076049805 22.17427825927734 13.61737155914307 22.09222221374512 13.2211389541626 21.92019081115723 C 12.8316535949707 21.75108528137207 12.41582679748535 21.66653251647949 11.99999904632568 21.66653251647949 C 11.58417129516602 21.66653251647949 11.16834449768066 21.75108528137207 10.77885913848877 21.92019081115723 L 10.77885913848877 21.92017936706543 C 10.38271331787109 22.09217643737793 9.96808910369873 22.17427444458008 9.559134483337402 22.17427444458008 C 8.501936912536621 22.17427444458008 7.482345581054688 21.62575149536133 6.915729522705078 20.66378021240234 L 6.90302848815918 20.64221000671387 C 6.474119186401367 19.91403007507324 5.763679504394531 19.39516067504883 4.939519882202148 19.20816040039063 L 4.91349983215332 19.20224952697754 C 3.413198471069336 18.86183929443359 2.397409439086914 17.46234893798828 2.538719177246094 15.93041038513184 L 2.544868469238281 15.86365985870361 C 2.621889114379883 15.0286693572998 2.353588104248047 14.19857025146484 1.80242919921875 13.56663036346436 L 1.757749557495117 13.51539993286133 C 0.7505397796630859 12.36056041717529 0.7505397796630859 10.63943958282471 1.757749557495117 9.484600067138672 L 1.80242919921875 9.433369636535645 C 2.353588104248047 8.801420211791992 2.621889114379883 7.971320152282715 2.544868469238281 7.136340141296387 L 2.538719177246094 7.069589614868164 C 2.397418975830078 5.537649154663086 3.413198471069336 4.138160705566406 4.913509368896484 3.797740936279297 L 4.939519882202148 3.791839599609375 C 5.763689041137695 3.604839324951172 6.474119186401367 3.085969924926758 6.90302848815918 2.357789993286133 L 6.915739059448242 2.336219787597656 C 7.482307434082031 1.374322891235352 8.502046585083008 0.8257980346679688 9.559148788452148 0.8257198333740234 Z" stroke="none" fill="#fff"/>
    </g>
    <path id="Icon_feather-check" data-name="Icon feather-check" d="M13.165,9,8.239,13.926,6,11.687" transform="translate(2.5 0.5)" fill="none" stroke="#fff" stroke-linecap="round" stroke-linejoin="round" stroke-width="1.5"/>
  </g>
</svg>
