<svg xmlns="http://www.w3.org/2000/svg" width="104" height="104" viewBox="0 0 104 104">
  <g id="Group_12378" data-name="Group 12378" transform="translate(-99 -117.657)">
    <g id="Ellipse_195" data-name="Ellipse 195" transform="translate(99 117.657)" fill="none" stroke="#06abc5" stroke-width="8">
      <circle cx="52" cy="52" r="52" stroke="none"/>
      <circle cx="52" cy="52" r="48" fill="none"/>
    </g>
    <g id="Group_12377" data-name="Group 12377" transform="translate(123.817 150.029)">
      <g id="Path_1191" data-name="Path 1191" transform="translate(-1036.421 -222.16)" fill="#06abc5">
        <path d="M 1055.336059570313 260.6180114746094 C 1054.107299804688 260.6180419921875 1053.037841796875 259.9901123046875 1052.066528320313 258.6983032226563 C 1049.544311523438 255.3450164794922 1046.989379882813 251.9276428222656 1044.5185546875 248.6227874755859 C 1043.314575195313 247.0124664306641 1042.110595703125 245.4021301269531 1040.905639648438 243.7925872802734 C 1040.769287109375 243.6103973388672 1040.632934570313 243.4280242919922 1040.496704101563 243.2456512451172 C 1039.84619140625 242.3748168945313 1039.173461914063 241.4743347167969 1038.488525390625 240.5995788574219 C 1037.3544921875 239.1507873535156 1037.125366210938 237.679931640625 1037.787963867188 236.1031188964844 C 1038.468994140625 234.4818420410156 1039.731567382813 233.6042022705078 1041.540649414063 233.4944000244141 C 1041.638916015625 233.4884185791016 1041.737182617188 233.4853973388672 1041.833129882813 233.4853973388672 C 1043.154052734375 233.4853973388672 1044.244750976563 234.0420074462891 1045.074829101563 235.1397857666016 C 1047.505493164063 238.3531494140625 1049.963012695313 241.6317901611328 1052.339599609375 244.8024597167969 C 1053.30517578125 246.0906829833984 1054.270874023438 247.3789215087891 1055.2373046875 248.6664886474609 C 1055.657592773438 249.2263793945313 1056.0205078125 249.7099304199219 1056.707275390625 249.7099304199219 C 1057.219848632813 249.7099304199219 1057.574096679688 249.4245910644531 1058.022583007813 249.0633392333984 L 1058.061157226563 249.0322418212891 C 1060.71435546875 246.8965911865234 1063.414306640625 244.7276306152344 1066.025268554688 242.6300964355469 C 1068.3583984375 240.7557525634766 1070.691528320313 238.8814392089844 1073.023193359375 237.0054168701172 C 1075.168090820313 235.2797393798828 1077.347045898438 233.5233764648438 1079.454345703125 231.8248291015625 C 1081.809204101563 229.9267120361328 1084.244262695313 227.9639587402344 1086.64111328125 226.0364074707031 C 1087.47021484375 225.3694458007813 1088.32568359375 224.7062225341797 1089.18359375 224.0650634765625 C 1089.975463867188 223.4732513427734 1090.899536132813 223.1604461669922 1091.855834960938 223.1604461669922 C 1093.13720703125 223.1604461669922 1094.3125 223.7299957275391 1095.080444335938 224.7230682373047 C 1095.827758789063 225.6895904541016 1096.171142578125 226.8271636962891 1096.047241210938 227.9262084960938 C 1095.923706054688 229.0224609375 1095.338623046875 230.0421600341797 1094.399658203125 230.7974548339844 C 1086.380249023438 237.2490844726563 1078.466430664063 243.6110382080078 1070.878051757813 249.7066497802734 C 1065.91845703125 253.6906280517578 1061.885009765625 256.921875 1058.184448242188 259.8756103515625 C 1057.55224609375 260.3803100585938 1056.81005859375 260.6153564453125 1055.848754882813 260.6153564453125 C 1055.778442382813 260.6153564453125 1055.7060546875 260.6140441894531 1055.633422851563 260.6114807128906 L 1055.588500976563 260.6098937988281 L 1055.543701171875 260.6123046875 C 1055.474243164063 260.6160888671875 1055.404296875 260.6180114746094 1055.336059570313 260.6180114746094 Z" stroke="none"/>
        <path d="M 1055.336059570313 259.6180114746094 C 1055.386352539063 259.6180114746094 1055.437866210938 259.6165771484375 1055.489501953125 259.6138000488281 L 1055.579223632813 259.6089172363281 L 1055.6689453125 259.6120910644531 C 1055.729736328125 259.6142578125 1055.790283203125 259.6153564453125 1055.848754882813 259.6153564453125 C 1056.5810546875 259.6153564453125 1057.10888671875 259.4546203613281 1057.560546875 259.0940246582031 C 1061.260375976563 256.1409606933594 1065.293090820313 252.9103393554688 1070.251708984375 248.9270324707031 C 1077.839965820313 242.8315887451172 1085.753540039063 236.4697723388672 1093.77294921875 230.0182647705078 C 1094.515625 229.4208679199219 1094.958374023438 228.6587219238281 1095.053588867188 227.8142547607422 C 1095.1494140625 226.9628601074219 1094.885131835938 226.1054382324219 1094.289306640625 225.3347778320313 C 1093.712158203125 224.5884704589844 1092.8251953125 224.1604461669922 1091.855834960938 224.1604461669922 C 1091.116943359375 224.1604461669922 1090.39990234375 224.4044494628906 1089.7822265625 224.8661041259766 C 1088.933715820313 225.5001678466797 1088.087768554688 226.1560516357422 1087.267822265625 226.8156890869141 C 1084.871337890625 228.7428741455078 1082.4365234375 230.7054443359375 1080.081909179688 232.6034088134766 C 1077.974487304688 234.3020782470703 1075.795288085938 236.05859375 1073.650146484375 237.7845458984375 C 1071.318237304688 239.6607208251953 1068.98486328125 241.5352020263672 1066.651489257813 243.4096832275391 C 1064.040771484375 245.507080078125 1061.341064453125 247.6758880615234 1058.688232421875 249.8112030029297 L 1058.649780273438 249.8421630859375 C 1058.144897460938 250.2489166259766 1057.572509765625 250.7099304199219 1056.707275390625 250.7099304199219 C 1055.520751953125 250.7099304199219 1054.894653320313 249.8758087158203 1054.437622070313 249.2668304443359 C 1053.470947265625 247.9790649414063 1052.505249023438 246.6906433105469 1051.539428710938 245.4022521972656 C 1049.163452148438 242.232421875 1046.70654296875 238.9546813964844 1044.277099609375 235.7429046630859 C 1043.637329101563 234.896728515625 1042.837890625 234.4853973388672 1041.833129882813 234.4853973388672 C 1041.75732421875 234.4853973388672 1041.679443359375 234.4878082275391 1041.601318359375 234.4925689697266 C 1040.184326171875 234.5785675048828 1039.238525390625 235.2320098876953 1038.709838867188 236.4905395507813 C 1038.193237304688 237.7199096679688 1038.373168945313 238.8297882080078 1039.27587890625 239.9830780029297 C 1039.9677734375 240.8667602539063 1040.643920898438 241.7718505859375 1041.2978515625 242.6471710205078 C 1041.433959960938 242.8292694091797 1041.569946289063 243.0113830566406 1041.706176757813 243.1932678222656 C 1042.911254882813 244.802978515625 1044.115356445313 246.4134979248047 1045.319458007813 248.0240020751953 C 1047.789794921875 251.3282775878906 1050.344360351563 254.7450714111328 1052.86572265625 258.0973205566406 C 1053.890625 259.4604187011719 1054.766357421875 259.6180114746094 1055.3359375 259.6180114746094 L 1055.336059570313 259.6180114746094 M 1055.336059570313 261.6180114746094 C 1053.62548828125 261.6180725097656 1052.31103515625 260.6875305175781 1051.267211914063 259.2992858886719 C 1047.535888671875 254.3383331298828 1043.825561523438 249.361328125 1040.105102539063 244.3919067382813 C 1039.309448242188 243.3290252685547 1038.519653320313 242.2613830566406 1037.701171875 241.2160949707031 C 1036.38427734375 239.5336456298828 1036.043090820313 237.6740570068359 1036.866088867188 235.7156829833984 C 1037.706176757813 233.7158508300781 1039.330444335938 232.626708984375 1041.480102539063 232.4962310791016 C 1041.598999023438 232.489013671875 1041.716674804688 232.4853973388672 1041.833129882813 232.4853973388672 C 1043.465209960938 232.4853973388672 1044.856323242188 233.1927947998047 1045.872436523438 234.5366668701172 C 1049.275390625 239.0354156494141 1052.650634765625 243.5547943115234 1056.037109375 248.066162109375 C 1056.367797851563 248.5067291259766 1056.5205078125 248.7099304199219 1056.707275390625 248.7099304199219 C 1056.873168945313 248.7099304199219 1057.065795898438 248.5497436523438 1057.43408203125 248.2532958984375 C 1062.4189453125 244.2408142089844 1067.410888671875 240.2374572753906 1072.396362304688 236.2262878417969 C 1076.937744140625 232.5724334716797 1081.472290039063 228.909912109375 1086.014404296875 225.2571411132813 C 1086.859130859375 224.5776519775391 1087.716674804688 223.9129180908203 1088.5849609375 223.2640380859375 C 1089.579223632813 222.5210113525391 1090.729614257813 222.1604461669922 1091.855834960938 222.1604461669922 C 1093.390258789063 222.1604461669922 1094.880126953125 222.8292846679688 1095.871459960938 224.1113433837891 C 1097.746215820313 226.5360260009766 1097.397094726563 229.6697235107422 1095.026489257813 231.5766448974609 C 1087.18798828125 237.8826751708984 1079.347290039063 244.1861114501953 1071.504272460938 250.4862670898438 C 1067.276733398438 253.8822326660156 1063.046264648438 257.2744750976563 1058.808227539063 260.6571655273438 C 1057.964599609375 261.3306579589844 1056.981689453125 261.6153564453125 1055.848754882813 261.6153564453125 C 1055.765869140625 261.6153564453125 1055.682373046875 261.6138610839844 1055.597900390625 261.61083984375 C 1055.509643554688 261.6156311035156 1055.422241210938 261.6180114746094 1055.336059570313 261.6180114746094 Z" stroke="none" fill="#fff"/>
      </g>
    </g>
  </g>
</svg>
