<svg xmlns="http://www.w3.org/2000/svg" width="37.5" height="39.206" viewBox="0 0 37.5 39.206">
  <g id="barbershop" transform="translate(0)">
    <g id="Group_9" data-name="Group 9" transform="translate(27.689 25.979)">
      <g id="Group_8" data-name="Group 8" transform="translate(0)">
        <path id="Path_8" data-name="Path 8" d="M380.042,341.776a.643.643,0,0,0-1.212.43,2.475,2.475,0,1,1-1.016-1.27.643.643,0,1,0,.684-1.089,3.761,3.761,0,1,0,1.544,1.929Z" transform="translate(-372.736 -339.27)" fill="#06abc5"/>
      </g>
    </g>
    <g id="Group_11" data-name="Group 11" transform="translate(11.375 2.619)">
      <g id="Group_10" data-name="Group 10">
        <path id="Path_9" data-name="Path 9" d="M184.579,57.67a6.049,6.049,0,0,0-9-.707l-5.1-7.257,2.306-13.19a10.836,10.836,0,0,1,1.32,7.33l-1.311,7.5a.643.643,0,1,0,1.267.222l1.311-7.5a12.122,12.122,0,0,0-2.445-9.616.643.643,0,0,0-1.137.289l-2.356,13.477L165.84,43.1a.643.643,0,0,0-1.053.739l8.1,11.538-1.578,2.211L163.6,46.612a10.834,10.834,0,0,1-1.922-7.195l1.85,2.633a.643.643,0,1,0,1.053-.739l-2.757-3.925a.643.643,0,0,0-1.152.223,12.121,12.121,0,0,0,1.877,9.742l5.632,8.019-.513,2.935A6.049,6.049,0,1,0,164.7,70a6.122,6.122,0,0,0,1.055.092,6.052,6.052,0,0,0,5.946-5.009l.659-3.768,2.4,3.423a6.18,6.18,0,0,0,5.052,2.629,5.937,5.937,0,0,0,3.44-1.093,6.05,6.05,0,0,0,1.325-8.6Zm-14.147,7.189a4.762,4.762,0,1,1-2.555-5.077.643.643,0,0,0,.922-.464l.43-2.459,2.083,2.965Zm14.038-2.8a4.724,4.724,0,0,1-5.487,3.949A4.861,4.861,0,0,1,175.815,64l-3.3-4.692,0,0-.419-.6,1.578-2.211,1.311,1.866a.643.643,0,0,0,1.032.028,4.763,4.763,0,0,1,8.452,3.67Z" transform="translate(-159.689 -34.208)" fill="#06abc5"/>
      </g>
    </g>
    <g id="Group_13" data-name="Group 13" transform="translate(13.664 28.688)">
      <g id="Group_12" data-name="Group 12">
        <path id="Path_10" data-name="Path 10" d="M194,374.706a3.761,3.761,0,0,0-1.3,7.41,3.809,3.809,0,0,0,.656.057,3.762,3.762,0,0,0,.64-7.467Zm1.79,4.131a2.475,2.475,0,1,1-2.012-2.864A2.477,2.477,0,0,1,195.786,378.838Z" transform="translate(-189.586 -374.649)" fill="#06abc5"/>
      </g>
    </g>
    <g id="Group_15" data-name="Group 15" transform="translate(21.873 22.317)">
      <g id="Group_14" data-name="Group 14">
        <path id="Path_11" data-name="Path 11" d="M297.734,291.522a.643.643,0,1,0,.33.677A.649.649,0,0,0,297.734,291.522Z" transform="translate(-296.79 -291.447)" fill="#06abc5"/>
      </g>
    </g>
    <g id="Group_17" data-name="Group 17" transform="translate(0)">
      <g id="Group_16" data-name="Group 16" transform="translate(0)">
        <path id="Path_12" data-name="Path 12" d="M23.195,24.332l0-.026a1.816,1.816,0,0,0-1.789-1.5H18.132a2.077,2.077,0,0,1-1.475-.571h4.2a.643.643,0,0,0,0-1.286H16.18q-.116-.551-.214-1.1h4.528a.643.643,0,0,0,0-1.286H15.757q-.079-.551-.143-1.1h4.734a.643.643,0,1,0,0-1.286H15.49q-.044-.551-.071-1.1h4.929a.643.643,0,1,0,0-1.286H15.377q-.008-.551,0-1.1H20.4a.643.643,0,0,0,0-1.286H15.419q.027-.551.071-1.1h5a.643.643,0,0,0,0-1.286h-4.88q.063-.552.143-1.1h4.889a.643.643,0,1,0,0-1.286h-4.68q.1-.552.215-1.1h4.678a.643.643,0,0,0,0-1.286h-4.2a2.077,2.077,0,0,1,1.475-.571H21.4a1.816,1.816,0,0,0,1.789-1.5l0-.024A1.817,1.817,0,0,0,21.406,0H15.278A3.307,3.307,0,0,0,12.1,2.441c-.731,2.693-1.419,8.959-.546,23.515a.643.643,0,0,0,1.284-.077c-.683-11.384-.509-19.372.5-23.1a2.018,2.018,0,0,1,1.939-1.491h6.127a.532.532,0,0,1,.522.634l0,.017a.531.531,0,0,1-.523.437H18.132A3.025,3.025,0,0,0,15.085,4.5a38.667,38.667,0,0,0,0,17.462,3.025,3.025,0,0,0,3.047,2.13H21.4a.531.531,0,0,1,.523.437l0,.026a.531.531,0,0,1-.522.625H19.255a2.385,2.385,0,0,0-2.37,2.2l-.68,9.354a1.271,1.271,0,0,1-2.532.026c-.18-1.926-.446-4.974-.688-8.556A.643.643,0,0,0,11.7,28.3c.243,3.6.51,6.655.691,8.589a2.557,2.557,0,0,0,5.1-.053l.68-9.354a1.094,1.094,0,0,1,1.087-1.011h2.152a1.817,1.817,0,0,0,1.788-2.139Z" transform="translate(-11.143)" fill="#06abc5"/>
      </g>
    </g>
  </g>
</svg>
