<svg xmlns="http://www.w3.org/2000/svg" width="45.1" height="40.89" viewBox="0 0 45.1 40.89">
  <path id="Icon_material-business" data-name="Icon material-business" d="M24.05,12.92V4.5H3V42.39H45.1V12.92ZM11.42,38.18H7.21V33.97h4.21Zm0-8.42H7.21V25.55h4.21Zm0-8.42H7.21V17.13h4.21Zm0-8.42H7.21V8.71h4.21Zm8.42,25.26H15.63V33.97h4.21Zm0-8.42H15.63V25.55h4.21Zm0-8.42H15.63V17.13h4.21Zm0-8.42H15.63V8.71h4.21ZM40.89,38.18H24.05V33.97h4.21V29.76H24.05V25.55h4.21V21.34H24.05V17.13H40.89ZM36.68,21.34H32.47v4.21h4.21Zm0,8.42H32.47v4.21h4.21Z" transform="translate(-1.5 -3)" fill="#06abc5" stroke="#fff" stroke-linecap="round" stroke-linejoin="round" stroke-width="3"/>
</svg>
