<svg xmlns="http://www.w3.org/2000/svg" width="52.026" height="20.812" viewBox="0 0 52.026 20.812">
  <g id="surface1" transform="translate(0 -0.492)">
    <path id="Path_1174" data-name="Path 1174" d="M240,86.891h3.468v1.735H240Zm0,0" transform="translate(-218.322 -78.595)" fill="#06abc5"/>
    <path id="Path_1175" data-name="Path 1175" d="M51.282,5.7l-5.89-.841a29.727,29.727,0,0,0-3.338-1.769,29.2,29.2,0,0,0-12.08-2.6H28.951A29.474,29.474,0,0,0,14.877,4.081L11.9,5.7A20.488,20.488,0,0,0,1.989,8.39,3.959,3.959,0,0,0,0,11.818v5.149a.867.867,0,0,0,.867.867H3.779a5.183,5.183,0,0,0,9.783,0H36.729a5.183,5.183,0,0,0,9.783,0h.311a.871.871,0,0,0,.323-.062l2.809-1.127a3.279,3.279,0,0,0,2.072-3.06V6.562A.868.868,0,0,0,51.282,5.7ZM12.069,16.794a3.469,3.469,0,1,1,.07-.694A3.468,3.468,0,0,1,12.069,16.794ZM27.747,16.1H13.873a5.2,5.2,0,1,0-10.405,0H1.734V11.818A2.218,2.218,0,0,1,2.85,9.9a18.747,18.747,0,0,1,9.289-2.467H27.747Zm0-10.405H15.54l.167-.091a27.725,27.725,0,0,1,12.04-3.339Zm1.734-3.469h.491a27.444,27.444,0,0,1,10.2,1.955L38.661,5.695H29.481ZM45.019,16.794a3.469,3.469,0,1,1,.07-.694A3.468,3.468,0,0,1,45.019,16.794Zm5.273-8.5h-2.6V10.03h2.6v3.555a1.552,1.552,0,0,1-.982,1.449l-2.487,1c0-.08-.01-.159-.015-.239s-.007-.173-.016-.26-.026-.174-.04-.26-.024-.174-.042-.252-.043-.166-.065-.249-.04-.165-.066-.246-.057-.158-.086-.237-.056-.16-.087-.239-.071-.149-.108-.223-.072-.154-.113-.229-.087-.138-.126-.207-.086-.148-.136-.219-.1-.127-.143-.192-.1-.14-.157-.206-.107-.119-.161-.174-.114-.128-.173-.189-.119-.109-.179-.162-.124-.117-.19-.174-.133-.1-.2-.149-.132-.1-.2-.148-.147-.086-.222-.135-.135-.087-.206-.124-.158-.077-.237-.115-.142-.072-.216-.1-.174-.064-.26-.1-.143-.056-.217-.079c-.1-.03-.2-.052-.3-.077-.066-.015-.129-.036-.2-.05-.107-.022-.216-.034-.324-.05-.064-.008-.126-.023-.19-.029a5.27,5.27,0,0,0-.529-.027,5.208,5.208,0,0,0-5.2,5.2H29.482V7.429H39.02a.866.866,0,0,0,.613-.254l2.249-2.249a27.806,27.806,0,0,1,2.749,1.5.87.87,0,0,0,.336.123l5.326.76Zm0,0" transform="translate(0 0)" fill="#06abc5"/>
  </g>
</svg>
