<svg id="Compass" xmlns="http://www.w3.org/2000/svg" width="37.795" height="37.795" viewBox="0 0 37.795 37.795">
  <path id="Path_36" data-name="Path 36" d="M35.386,5.78a4.409,4.409,0,0,0-4.359,3.78H23.417v1.26h7.559V35.386a.63.63,0,1,0,1.26,0,3.15,3.15,0,0,1,6.3,0v.132a3.024,3.024,0,0,1-3.017,3.017H3.26V25.507a17.071,17.071,0,0,0,15.118,9.249.63.63,0,0,0,0-1.26,15.647,15.647,0,0,1-6.821-1.58l.391-1.459a1.843,1.843,0,0,0,1.672-1.386l2.074-7.733a11.279,11.279,0,0,0,1.425.171v.648a.63.63,0,0,0,1.26,0v-.648A11.279,11.279,0,0,0,19.8,21.34l2.073,7.73a1.84,1.84,0,0,0,1.672,1.386l.52,1.943a.63.63,0,0,0,.609.468.638.638,0,0,0,.163-.021.63.63,0,0,0,.445-.772l-.52-1.938a1.9,1.9,0,0,0,.756-2.037L21.388,12.673a4.4,4.4,0,0,0-1.121-6.1V4.52a2.52,2.52,0,0,0-5.039,0V6.576a4.4,4.4,0,0,0-1.121,6.1L9.97,28.1a1.89,1.89,0,0,0,.76,2.033l-.315,1.172A15.73,15.73,0,0,1,3.26,22.14V10.819h8.819V9.559H2V39.8H35.518a4.283,4.283,0,0,0,4.277-4.28V10.189A4.415,4.415,0,0,0,35.386,5.78ZM18.378,20.23v-.592a.63.63,0,1,0-1.26,0v.592a10.022,10.022,0,0,1-1.093-.126L17.5,14.587c.081,0,.161.013.244.013s.163-.008.244-.013L19.471,20.1a10.022,10.022,0,0,1-1.093.126Zm5.929,8.192a.636.636,0,0,1-.441.772h0a.63.63,0,0,1-.476-.063.619.619,0,0,1-.289-.383L19.229,14.337a4.4,4.4,0,0,0,1.138-.609ZM16.488,4.52a1.26,1.26,0,1,1,2.52,0V5.969a4.363,4.363,0,0,0-2.52,0Zm1.26,2.52a3.15,3.15,0,1,1-3.15,3.15,3.15,3.15,0,0,1,3.15-3.15Zm-6.56,21.385,3.941-14.7a4.4,4.4,0,0,0,1.138.609L12.4,28.751a.63.63,0,0,1-.762.446h-.006a.636.636,0,0,1-.446-.772ZM38.536,32.3a4.4,4.4,0,0,0-6.3,0V10.189a3.15,3.15,0,1,1,6.3,0Z" transform="translate(-2 -2)" fill="#06abc5"/>
  <path id="Path_37" data-name="Path 37" d="M25.89,15.78A1.89,1.89,0,1,0,24,13.89,1.89,1.89,0,0,0,25.89,15.78Zm0-2.52a.63.63,0,1,1-.63.63A.63.63,0,0,1,25.89,13.26Z" transform="translate(-10.142 -5.701)" fill="#06abc5"/>
</svg>
