<svg id="mortarboard" xmlns="http://www.w3.org/2000/svg" width="45.698" height="34.771" viewBox="0 0 45.698 34.771">
  <g id="Group_20" data-name="Group 20">
    <path id="Path_38" data-name="Path 38" d="M44.18,51.238l-18.216-8.9a7.461,7.461,0,0,0-5.81,0l-18.635,8.9A2.245,2.245,0,0,0,0,53.227c0,.471.209,1.309,1.518,1.989l1.518.733v8.375A2.565,2.565,0,0,0,1.413,66.68a2.6,2.6,0,0,0,1.57,2.356L.628,76.521h6.6L4.868,69.035a2.536,2.536,0,0,0-.052-4.711V56.839L7.59,58.2V69.087a.844.844,0,0,0,.157.471,19.011,19.011,0,0,0,15.076,6.962,18.9,18.9,0,0,0,15.023-6.962A.844.844,0,0,0,38,69.087V58.252l6.177-3.036A2.245,2.245,0,0,0,45.7,53.227,2.34,2.34,0,0,0,44.18,51.238ZM36.328,68.826A17.5,17.5,0,0,1,22.823,74.9,17.5,17.5,0,0,1,9.318,68.826V58.932l10.836,5.182a7.059,7.059,0,0,0,2.879.576,6.374,6.374,0,0,0,2.931-.628l10.364-5.078ZM43.447,53.75l-6.281,3.088a.6.6,0,0,0-.576.314l-11.359,5.5a5.812,5.812,0,0,1-4.4,0l-13.976-6.7,16.07-1.884a.815.815,0,1,0-.157-1.623L4.135,54.64l-1.884-.89a1.056,1.056,0,0,1-.576-.471c0-.052.1-.262.576-.471l18.635-8.951a5.408,5.408,0,0,1,2.146-.419,5.306,5.306,0,0,1,2.2.419l18.216,8.9c.471.209.576.419.576.523A1.439,1.439,0,0,1,43.447,53.75Z" transform="translate(0 -41.75)" fill="#06abc5"/>
  </g>
</svg>
