<svg id="energy" xmlns="http://www.w3.org/2000/svg" width="40" height="28.765" viewBox="0 0 40 28.765">
  <path id="Path_31" data-name="Path 31" d="M7.983,27.189a.837.837,0,0,1-.59-.243,15,15,0,0,1,0-21.212A.833.833,0,0,1,8.573,6.913a13.326,13.326,0,0,0,0,18.853.834.834,0,0,1-.59,1.423Z" transform="translate(2 -1.957)" fill="#06abc5"/>
  <path id="Path_32" data-name="Path 32" d="M6.45,32.136a.837.837,0,0,1-.59-.243,19.986,19.986,0,0,1,0-28.278A.833.833,0,0,1,7.04,4.793a18.316,18.316,0,0,0,0,25.92.834.834,0,0,1-.59,1.423Z" transform="translate(0 -3.371)" fill="#06abc5"/>
  <path id="Path_33" data-name="Path 33" d="M20.464,32.136a.833.833,0,0,1-.59-1.422,18.318,18.318,0,0,0,0-25.922.833.833,0,1,1,1.178-1.178,19.982,19.982,0,0,1,0,28.277.825.825,0,0,1-.588.245Z" transform="translate(13.086 -3.371)" fill="#06abc5"/>
  <path id="Path_34" data-name="Path 34" d="M18.344,27.189a.833.833,0,0,1-.59-1.422,13.328,13.328,0,0,0,0-18.855.833.833,0,0,1,1.178-1.178,14.992,14.992,0,0,1,0,21.21.825.825,0,0,1-.588.245Z" transform="translate(11.673 -1.957)" fill="#06abc5"/>
  <path id="Path_35" data-name="Path 35" d="M11.288,30.667a.832.832,0,0,1-.8-1.055L13.406,19H7.833a.832.832,0,0,1-.667-1.332L17.138,4.335a.833.833,0,0,1,1.49.633L17.148,14h5.685a.833.833,0,0,1,.66,1.342l-11.545,15A.833.833,0,0,1,11.288,30.667ZM9.5,17.333h5a.833.833,0,0,1,.8,1.055l-2.083,7.57,7.92-10.292H16.166a.831.831,0,0,1-.635-.293.84.84,0,0,1-.188-.675l1.088-6.637Z" transform="translate(4.667 -2.951)" fill="#06abc5"/>
</svg>
