<svg xmlns="http://www.w3.org/2000/svg" width="37.89" height="37.89" viewBox="0 0 37.89 37.89">
  <path id="Path_56" data-name="Path 56" d="M33.138,17.6a2.933,2.933,0,0,0,1.792.6,2.96,2.96,0,0,0,1.795-5.314l-3.719-2.858V.743a.74.74,0,0,0-.74-.74h-4.44a.74.74,0,0,0-.74.74V5.486L20.738.607a2.96,2.96,0,0,0-3.587,0l-5.635,4.33a.74.74,0,1,0,.9,1.173L18.05,1.785a1.48,1.48,0,0,1,1.788,0L35.826,14.069a1.48,1.48,0,0,1-1.789,2.359L19.4,5.168a.74.74,0,0,0-.877-.019c-.034.023-14.663,11.276-14.664,11.277a1.48,1.48,0,0,1-1.046.294A1.3,1.3,0,0,1,1.521,15.6a1.491,1.491,0,0,1,.547-1.535l5.071-3.9A.74.74,0,1,0,6.237,9l-5.069,3.9A2.955,2.955,0,0,0,.078,15.929a2.76,2.76,0,0,0,2.589,2.264,2.954,2.954,0,0,0,2.087-.59h0l.133-.1V27.655A4.424,4.424,0,0,0,1.57,31.183,3.69,3.69,0,0,0,3.7,37.893H34.19a3.69,3.69,0,0,0,2.131-6.709,4.424,4.424,0,0,0-3.315-3.529V17.5ZM28.566,1.483h2.96V8.9l-2.96-2.275ZM11.841,36.413H3.7a2.211,2.211,0,0,1-1.082-4.144.74.74,0,0,0,.373-.574,2.942,2.942,0,0,1,5.341-1.426.74.74,0,0,0,.775.292,2.194,2.194,0,0,1,2.733,2.127.747.747,0,0,0,.483.857,1.475,1.475,0,0,1-.483,2.87Zm12.745-4.044a2.94,2.94,0,0,0-1.1,1.084H14.4a2.94,2.94,0,0,0-1.1-1.084,3.753,3.753,0,0,0-.059-.4h11.4A3.771,3.771,0,0,0,24.586,32.369ZM14.4,36.413a2.942,2.942,0,0,0,.4-1.48H23.09a2.943,2.943,0,0,0,.4,1.48ZM34.9,31.694a.74.74,0,0,0,.373.574,2.211,2.211,0,0,1-1.082,4.144H26.05a1.475,1.475,0,0,1-.483-2.87.747.747,0,0,0,.483-.857,2.194,2.194,0,0,1,2.733-2.127.74.74,0,0,0,.775-.292A2.942,2.942,0,0,1,34.9,31.694Zm-3.373-4.138a4.45,4.45,0,0,0-2.876,1.479,3.331,3.331,0,0,0-.38-.022,3.714,3.714,0,0,0-2.959,1.48H12.58a3.714,3.714,0,0,0-2.959-1.48,3.33,3.33,0,0,0-.38.022,4.45,4.45,0,0,0-2.876-1.479V16.364l12.58-9.676,12.581,9.676Z" transform="translate(0 -0.003)" fill="#06abc5"/>
</svg>
